<?xml version="1.0" encoding="UTF-8"?>
<svg version="1.1" xmlns="http://www.w3.org/2000/svg" width="904" height="1280">
<path d="M0 0 C19.6465842 9.49652358 39.40250986 17.99649831 59.81047058 25.71440125 C67.87617607 28.77566601 75.77337941 32.13437661 83.53125 35.90625 C84.49998047 36.37224609 84.49998047 36.37224609 85.48828125 36.84765625 C116.39296163 51.90378259 136.18736533 78.98474772 147.53125 110.90625 C148.87928474 115.05115901 150.11428683 119.2218611 151.29296875 123.41796875 C153.80465339 130.49347154 158.12490532 135.54881604 164.70703125 139.0703125 C178.21154587 145.37998488 192.80398023 143.74288211 206.53125 138.90625 C215.28775212 134.99114257 221.01595564 129.55554961 226.76171875 121.953125 C227.34566406 121.27765625 227.92960938 120.6021875 228.53125 119.90625 C229.19125 119.90625 229.85125 119.90625 230.53125 119.90625 C228.85545366 129.82281803 222.27020173 138.65330805 214.53125 144.90625 C198.43837499 155.58134526 181.26179696 156.42766978 162.53125 153.90625 C172.68639348 162.63869222 182.48036072 166.30867878 195.85546875 166.1875 C211.1867911 165.01443389 223.44227715 159.31566102 233.53125 147.90625 C234.335625 146.895625 235.14 145.885 235.96875 144.84375 C236.484375 144.204375 237 143.565 237.53125 142.90625 C238.19125 142.90625 238.85125 142.90625 239.53125 142.90625 C238.27572983 151.8397589 231.17268476 160.97908275 224.53125 166.90625 C209.97694918 177.15198301 193.94077627 179.64924184 176.46875 177.21875 C165.18154496 175.06527009 156.45757572 169.98756745 147.53125 162.90625 C148.4903125 164.081875 148.4903125 164.081875 149.46875 165.28125 C152.47295446 169.10478295 152.91826997 171.04250647 152.53125 175.90625 C151.17578125 179.1953125 151.17578125 179.1953125 149.34375 182.53125 C148.45623047 184.19027344 148.45623047 184.19027344 147.55078125 185.8828125 C144.46810913 190.49787676 141.92279279 192.5583643 136.53125 193.90625 C136.20125 304.78625 135.87125 415.66625 135.53125 529.90625 C-23.85875 529.90625 -183.24875 529.90625 -347.46875 529.90625 C-347.46875 493.27625 -347.46875 456.64625 -347.46875 418.90625 C-343.83875 418.90625 -340.20875 418.90625 -336.46875 418.90625 C-336.46875 418.24625 -336.46875 417.58625 -336.46875 416.90625 C-337.5825 416.82375 -338.69625 416.74125 -339.84375 416.65625 C-343.46875 415.90625 -343.46875 415.90625 -344.6875 414.17358398 C-345.58074473 411.5812203 -345.66686414 409.61687832 -345.59375 406.87890625 C-345.57828125 405.92177734 -345.5628125 404.96464844 -345.546875 403.97851562 C-345.49489299 401.97590883 -345.44281006 399.97330464 -345.390625 397.97070312 C-345.37515625 397.01228516 -345.3596875 396.05386719 -345.34375 395.06640625 C-345.32054687 394.19636963 -345.29734375 393.32633301 -345.2734375 392.42993164 C-345.49343177 389.58733071 -346.34295508 387.51046263 -347.46875 384.90625 C-348.02036453 380.86107675 -347.37418259 378.6352238 -345.44140625 375.1875 C-342.13078227 367.93411692 -343.2730439 359.84342184 -343.6262207 352.06445312 C-344.07924124 341.19196022 -342.3972044 332.7631588 -337.46875 322.90625 C-337.3482717 321.31765769 -337.28885386 319.7242408 -337.26000977 318.13134766 C-337.23107384 316.63675522 -337.23107384 316.63675522 -337.20155334 315.11196899 C-337.14327489 310.47800457 -337.0943475 305.84419689 -337.0637207 301.20996094 C-337.04235672 298.78956649 -337.00851993 296.36924453 -336.96118164 293.94921875 C-336.6709262 278.95922977 -337.58156717 266.09169808 -342.76116943 251.96583557 C-347.63824908 237.76990744 -347.91310259 221.17569622 -345.921875 206.39453125 C-345.43455829 202.64303281 -345.33135915 201.02327832 -347.46875 197.90625 C-350.77382613 196.0700966 -353.90146414 195.0650323 -357.5390625 194.046875 C-365.31205323 191.84663168 -372.5360102 189.67195217 -376.96875 182.46875 C-378.45678569 174.84256709 -377.10018579 168.23949754 -373.09765625 161.6484375 C-361.45203689 145.61825641 -342.75185162 137.83241386 -325.27832031 129.92895508 C-305.00020396 121.72900992 -305.00020396 121.72900992 -290.40625 106.46875 C-288.47489153 99.12958782 -288.89746243 92.66466273 -292.46875 85.90625 C-295.12018649 81.79697901 -297.69274521 79.22355328 -302.46875 77.90625 C-306.88855004 77.76202295 -311.30733951 78.00609287 -315.72070312 78.24804688 C-323.44875831 78.46256229 -323.44875831 78.46256229 -327.01953125 75.59375 C-331.79765631 70.35076747 -332.82288689 64.9744781 -333.74609375 58.140625 C-334.71260885 55.1522648 -335.7175773 54.39817947 -338.46875 52.90625 C-341.73144913 52.11685842 -341.73144913 52.11685842 -345.21875 51.71875 C-346.97445312 51.48091797 -346.97445312 51.48091797 -348.765625 51.23828125 C-350.10367188 51.07392578 -350.10367188 51.07392578 -351.46875 50.90625 C-351.46875 49.91625 -351.46875 48.92625 -351.46875 47.90625 C-341.71874398 42.5880649 -332.65539052 40.22519368 -321.71875 43.40625 C-315.04501531 45.75627437 -309.93663786 49.49982814 -304.46875 53.90625 C-303.416875 54.669375 -302.365 55.4325 -301.28125 56.21875 C-290.1390552 66.86573614 -282.5257375 81.57027414 -282.03125 97.03125 C-282.17905993 102.96292668 -282.98681213 107.09682332 -286.46875 111.90625 C-286.88125 112.49664062 -287.29375 113.08703125 -287.71875 113.6953125 C-295.00521563 123.09319714 -306.33237839 128.13433126 -316.71875 133.34375 C-344.50141341 145.76434763 -344.50141341 145.76434763 -363.46875 167.90625 C-363.78182125 170.19798718 -363.78182125 170.19798718 -363.71875 172.53125 C-363.72390625 173.30726563 -363.7290625 174.08328125 -363.734375 174.8828125 C-363.64790354 177.13313411 -363.64790354 177.13313411 -361.46875 178.90625 C-350.96717943 181.35661647 -341.20404696 177.70387986 -332.03125 172.53125 C-324.70634454 167.97266522 -318.6018952 162.492073 -312.828125 156.0859375 C-300.38230148 142.8071258 -284.3707289 133.28641711 -268.74804688 124.23193359 C-265.4676774 122.32400662 -262.21787911 120.36673996 -258.96875 118.40625 C-254.87660284 115.94243289 -250.77547006 113.49527797 -246.66015625 111.0703125 C-233.56275997 103.32643142 -220.68599469 95.28378805 -208.7890625 85.76171875 C-206.96551333 84.3034934 -205.12838352 82.87446959 -203.2734375 81.45703125 C-195.9626236 75.84242404 -189.07612749 69.94122958 -182.3671875 63.62109375 C-180.02529383 61.42754105 -177.6558336 59.30423853 -175.21875 57.21875 C-171.60257566 54.09638098 -168.26323979 50.74057024 -164.9375 47.3125 C-162.96117651 45.38621002 -160.96209756 43.59924941 -158.8671875 41.80859375 C-152.97723115 36.70057514 -147.59793611 31.06585167 -142.15234375 25.49389648 C-140.76475999 24.07630197 -139.37076582 22.66499095 -137.9765625 21.25390625 C-137.15816895 20.41867432 -136.33977539 19.58344238 -135.49658203 18.72290039 C-133.46875 16.90625 -133.46875 16.90625 -131.46875 16.90625 C-131.46875 16.24625 -131.46875 15.58625 -131.46875 14.90625 C-130.03515625 13.4609375 -130.03515625 13.4609375 -128.03125 11.78125 C-125.77370119 9.87496316 -123.5419799 7.97521275 -121.390625 5.94921875 C-82.83678252 -30.24855558 -42.48535753 -20.59031739 0 0 Z " fill="#010101" transform="translate(542.46875,364.09375)"/>
<path d="M0 0 C0.66 0.33 1.32 0.66 2 1 C1.56429688 1.38929688 1.12859375 1.77859375 0.6796875 2.1796875 C-8.48856633 10.79228959 -14.56310725 21.85573315 -15.16796875 34.515625 C-15.26147659 52.39432468 -9.92531742 66.23093683 -0.98828125 81.56640625 C3.26801415 88.91666884 3.26801415 88.91666884 3.08984375 93.2578125 C3.06986328 94.04800781 3.04988281 94.83820313 3.02929688 95.65234375 C2.9678038 97.30873175 2.90266481 98.96498819 2.83398438 100.62109375 C2.78352097 102.74751712 2.88155369 104.87627841 3 107 C5.7649165 108.84327767 7.49241434 109.52969911 10.625 110.375 C14.95200129 111.61490096 18.93166851 113.19994553 22.9921875 115.1328125 C29.89328127 118.11344055 38.35943936 118.04016018 45.5 116 C49.17124868 113.06300106 51.52268052 110.53939985 53 106 C52.94353202 103.68481262 52.80852826 101.37109235 52.625 99.0625 C51.7157245 85.53082734 59.98300797 69.63623004 68 59 C70.0625 57.5625 70.0625 57.5625 72 57 C72.99 57.33 73.98 57.66 75 58 C74.34 58 73.68 58 73 58 C72.67 168.88 72.34 279.76 72 394 C-87.39 394 -246.78 394 -411 394 C-411 357.37 -411 320.74 -411 283 C-407.37 283 -403.74 283 -400 283 C-400 282.34 -400 281.68 -400 281 C-398.15535156 280.72736328 -398.15535156 280.72736328 -396.2734375 280.44921875 C-394.64054328 280.19583861 -393.00773519 279.94190292 -391.375 279.6875 C-390.56675781 279.56955078 -389.75851562 279.45160156 -388.92578125 279.33007812 C-384.08644655 278.56286653 -380.34388706 277.38579643 -376 275 C-375.34 275 -374.68 275 -374 275 C-373.67 273.02 -373.34 271.04 -373 269 C-374.9490625 269.0309375 -374.9490625 269.0309375 -376.9375 269.0625 C-378.29165633 269.08399454 -379.64756083 269.07148199 -381 269 C-381.33 268.67 -381.66 268.34 -382 268 C-381.98839844 267.3503125 -381.97679687 266.700625 -381.96484375 266.03125 C-381.91652361 261.55818564 -382.12041527 258.94360996 -385.25390625 255.58203125 C-387.07615733 254.0760172 -388.89906813 252.57080104 -390.72265625 251.06640625 C-393 249 -393 249 -394.4375 245.75 C-393.60957697 238.65351691 -390.65333071 232.16460914 -387.36328125 225.8671875 C-383.21067406 217.84350581 -382.24089273 211.2358011 -382.10546875 202.359375 C-382 199 -382 199 -381 198 C-378.70833333 198 -376.41666667 198 -374.125 198 C-365.47747481 197.67162596 -361.08746129 194.0407783 -355 188 C-353.31697819 186.51573996 -351.62954229 185.03646851 -349.9375 183.5625 C-348.28538369 182.04849436 -346.63953047 180.52762601 -345 179 C-344.18789063 178.25363281 -343.37578125 177.50726562 -342.5390625 176.73828125 C-333.63626123 168.24270591 -326.79172884 158.31184615 -320.07910156 148.05786133 C-309.1096605 131.31825746 -296.1995864 121.04711383 -277 115 C-274.67498498 114.61288154 -272.34227624 114.26324433 -270 114 C-270 114.66 -270 115.32 -270 116 C-271.16015625 116.47308594 -272.3203125 116.94617188 -273.515625 117.43359375 C-288.94034686 123.89241678 -307.1404526 133.68360085 -314 150 C-314.51111763 154.38100823 -314.37438609 157.29567918 -312 161 C-310.11272779 162.63800984 -308.28623316 164.07185299 -306.25 165.5 C-305.64945801 165.92579346 -305.04891602 166.35158691 -304.43017578 166.7902832 C-296.19268181 172.45521986 -287.2784194 176.99050772 -278.46679688 181.68261719 C-256.4475389 193.44191212 -256.4475389 193.44191212 -253 204 C-252.01 201.03 -252.01 201.03 -251 198 C-249.02090602 197.97313447 -247.04171029 197.95366625 -245.0625 197.9375 C-243.96035156 197.92589844 -242.85820312 197.91429687 -241.72265625 197.90234375 C-239 198 -239 198 -238 199 C-237.91156207 201.44830426 -237.88471248 203.86820599 -237.90234375 206.31640625 C-237.90446617 207.41298805 -237.90446617 207.41298805 -237.90663147 208.53172302 C-237.91224592 210.87535632 -237.92480078 213.21889539 -237.9375 215.5625 C-237.94251314 217.14778508 -237.94707637 218.73307166 -237.95117188 220.31835938 C-237.96222003 224.2122761 -237.97949428 228.10612205 -238 232 C-234.7 232 -231.4 232 -228 232 C-227.96971063 227.73034861 -227.9857321 223.46399438 -228.04272461 219.19482422 C-228.05577862 217.74598965 -228.05667746 216.29698822 -228.04467773 214.84814453 C-227.77153689 204.90986333 -227.77153689 204.90986333 -232.28125 196.38671875 C-233.50847706 195.24439222 -234.74717253 194.11419006 -236 193 C-239.1617224 188.77568886 -242.09850572 184.40565077 -245 180 C-245.37898437 179.42459473 -245.75796875 178.84918945 -246.1484375 178.25634766 C-247.25858458 176.55428164 -248.35146176 174.8425317 -249.4375 173.125 C-250.07558594 172.11695313 -250.71367187 171.10890625 -251.37109375 170.0703125 C-256.16874917 161.02724976 -256.30770766 151.41571565 -253.375 141.75 C-249.48249838 131.31101839 -242.02666775 123.11309362 -231.9296875 118.3125 C-223.3944568 114.86470403 -214.78932766 115.45694929 -205.75 115.6875 C-204.02216802 115.71263741 -202.29430044 115.73544089 -200.56640625 115.75585938 C-196.37670837 115.81037131 -192.18875802 115.89633366 -188 116 C-187.37477494 114.11741811 -187.37477494 114.11741811 -187 112 C-188.24946068 109.51554088 -188.24946068 109.51554088 -190.125 107 C-196.89172063 96.85667228 -201.65206673 85.38926789 -201 73 C-199.73754881 75.46209386 -198.57609523 77.94342716 -197.44140625 80.46875 C-189.44429701 97.87193143 -177.60737113 108.4738332 -160.9453125 117.76953125 C-148.89120982 124.52583435 -137.19171054 131.89565789 -126 140 C-125.15824219 140.60457031 -124.31648438 141.20914063 -123.44921875 141.83203125 C-117.57274944 146.20728487 -112.86474132 151.18521691 -108.46875 157.0390625 C-104.12131735 162.55859709 -99.25278398 165.25567172 -93.02734375 168.421875 C-85.17759232 172.51387445 -80.6066145 178.50257352 -77.5625 186.75 C-75.68689985 190.65124832 -73.67593406 191.84238653 -70 194 C-68.20532275 197.58935451 -68.6299929 201.99348414 -68.48242188 205.97070312 C-68.2828886 210.04042893 -67.78475206 213.32211014 -66 217 C-54.59930841 219.27465722 -41.93383332 217.00169097 -32 211 C-33.00242837 198.68228171 -44.08931069 190.57408591 -53 183 C-53.84175781 182.35289062 -54.68351562 181.70578125 -55.55078125 181.0390625 C-60.04484033 177.29759704 -63.42488592 172.59837995 -67 168 C-67.58523438 167.2884375 -68.17046875 166.576875 -68.7734375 165.84375 C-72.74671348 160.59983246 -74.07675383 155.19543158 -75.46655273 148.87988281 C-77.05506763 142.007389 -80.13866884 137.44032577 -84.578125 132.10253906 C-89.58660301 125.54788318 -89.92389787 119.75435128 -90.125 111.6875 C-90.24825706 109.09464657 -90.37999015 106.50218431 -90.51953125 103.91015625 C-90.58994629 102.59547363 -90.66036133 101.28079102 -90.73291016 99.92626953 C-91.93751829 82.21830977 -95.39817101 64.7031521 -99.43066406 47.44775391 C-100.31671526 43.6383417 -101.15648566 39.81903051 -102 36 C-87.67721849 49.06872462 -86.63497824 82.44499517 -84.98730469 100.26757812 C-84.88450195 101.34974609 -84.78169922 102.43191406 -84.67578125 103.546875 C-84.59239502 104.50432617 -84.50900879 105.46177734 -84.4230957 106.44824219 C-83.99531753 109.02824075 -83.38818365 110.79267845 -82 113 C-78.2629008 114.8685496 -73.89387103 114.50106902 -69.93115234 113.45263672 C-67.81084547 112.68746268 -65.7523116 111.84168613 -63.6875 110.9375 C-62.94693359 110.62167969 -62.20636719 110.30585937 -61.44335938 109.98046875 C-51.64753461 105.68360567 -43.27542034 99.72250195 -35 93 C-35 96 -35 96 -36.3984375 97.76171875 C-37.05070312 98.39722656 -37.70296875 99.03273438 -38.375 99.6875 C-39.09558594 100.39003906 -39.81617188 101.09257813 -40.55859375 101.81640625 C-43.86108815 104.77015724 -47.38742671 107.37792496 -50.99609375 109.9453125 C-53.59485521 112.60992952 -53.92316707 114.31201944 -54 118 C-52.58968127 121.10388139 -50.25511975 123.46118715 -48 126 C-47.48824219 126.639375 -46.97648437 127.27875 -46.44921875 127.9375 C-41.45331072 133.63398364 -35.29019665 136.86788606 -28.61035156 140.23583984 C-20.09520431 144.63991063 -14.04059424 150.46124421 -10.6875 159.5625 C-8.72056781 163.56921373 -6.78801105 164.77660221 -3 167 C-1.51941892 169.96116216 -1.66753348 173.05800694 -1.5 176.3125 C-1.26268418 180.63927588 -0.98084907 184.77417526 0 189 C8.21279561 189.42479977 15.69595781 189.19279885 23.6875 187.1875 C24.3578125 187.02217773 25.028125 186.85685547 25.71875 186.68652344 C29.38609555 185.6949957 32.144359 184.52308534 35 182 C34.61351629 176.67598976 32.68710115 173.88432387 29.0625 170.1875 C28.57249512 169.67123047 28.08249023 169.15496094 27.57763672 168.62304688 C22.2046306 163.03415334 16.52218164 157.76437892 10.421875 152.9765625 C6.79929093 150.02006647 3.95090503 146.61155541 1 143 C0.38511719 142.28070312 -0.22976563 141.56140625 -0.86328125 140.8203125 C-5.20189579 135.30181778 -6.90343589 130.09442914 -8.29492188 123.33520508 C-9.89789269 116.21489592 -13.31773077 110.42162951 -17.07421875 104.23046875 C-20.62749985 98.26989376 -20.50808897 92.79145585 -20 86 C-19.36072322 83.61386225 -18.54523654 81.37142441 -17.68359375 79.05859375 C-15.6984991 73.08062299 -17.10735998 68.50874456 -19 62.75 C-23.82982077 46.69084596 -21.75034281 30.50196922 -13.875 15.8125 C-10.11476942 9.66014017 -5.31125341 4.83035521 0 0 Z " fill="#269DC8" transform="translate(606,500)"/>
<path d="M0 0 C159.39 0 318.78 0 483 0 C483 36.63 483 73.26 483 111 C323.61 111 164.22 111 0 111 C0 74.37 0 37.74 0 0 Z " fill="#020202" transform="translate(195,783)"/>
<path d="M0 0 C1.26245119 2.46209386 2.42390477 4.94342716 3.55859375 7.46875 C11.59400615 24.95528615 23.61740188 35.63643435 40.33984375 44.9375 C44.05570601 47.01128414 47.69127237 49.20333007 51.3125 51.4375 C52.38113281 52.09621094 53.44976562 52.75492188 54.55078125 53.43359375 C57 55 57 55 58 56 C58.096708 57.98694851 58.12187052 59.97739013 58.12025452 61.96669006 C58.12163201 63.2611332 58.12300951 64.55557634 58.12442875 65.88924503 C58.12088147 67.34291162 58.11724358 68.79657798 58.11352539 70.25024414 C58.11321928 71.79226142 58.11335216 73.33427883 58.11389065 74.87629604 C58.11411717 79.01998748 58.10830537 83.16365025 58.10128021 87.3073349 C58.09560129 91.19020176 58.09531797 95.07306152 58.09460449 98.95593262 C58.08934922 110.32479223 58.07538818 121.69364647 58.0625 133.0625 C58.041875 158.451875 58.02125 183.84125 58 210 C-26.81 210 -111.62 210 -199 210 C-199 209.34 -199 208.68 -199 208 C-197.15535156 207.72736328 -197.15535156 207.72736328 -195.2734375 207.44921875 C-193.64054328 207.19583861 -192.00773519 206.94190292 -190.375 206.6875 C-189.16263672 206.51057617 -189.16263672 206.51057617 -187.92578125 206.33007812 C-183.08644655 205.56286653 -179.34388706 204.38579643 -175 202 C-174.34 202 -173.68 202 -173 202 C-172.505 199.03 -172.505 199.03 -172 196 C-173.299375 196.020625 -174.59875 196.04125 -175.9375 196.0625 C-177.29165633 196.08399454 -178.64756083 196.07148199 -180 196 C-180.33 195.67 -180.66 195.34 -181 195 C-180.98839844 194.3503125 -180.97679687 193.700625 -180.96484375 193.03125 C-180.91652361 188.55818564 -181.12041527 185.94360996 -184.25390625 182.58203125 C-186.07615733 181.0760172 -187.89906813 179.57080104 -189.72265625 178.06640625 C-192 176 -192 176 -193.4375 172.75 C-192.60957697 165.65351691 -189.65333071 159.16460914 -186.36328125 152.8671875 C-182.21067406 144.84350581 -181.24089273 138.2358011 -181.10546875 129.359375 C-181 126 -181 126 -180 125 C-177.70833333 125 -175.41666667 125 -173.125 125 C-164.47747481 124.67162596 -160.08746129 121.0407783 -154 115 C-152.31697819 113.51573996 -150.62954229 112.03646851 -148.9375 110.5625 C-147.28538369 109.04849436 -145.63953047 107.52762601 -144 106 C-143.18789063 105.25363281 -142.37578125 104.50726562 -141.5390625 103.73828125 C-132.63626123 95.24270591 -125.79172884 85.31184615 -119.07910156 75.05786133 C-108.1096605 58.31825746 -95.1995864 48.04711383 -76 42 C-73.67498498 41.61288154 -71.34227624 41.26324433 -69 41 C-69 41.66 -69 42.32 -69 43 C-70.16015625 43.47308594 -71.3203125 43.94617188 -72.515625 44.43359375 C-87.94034686 50.89241678 -106.1404526 60.68360085 -113 77 C-113.51111763 81.38100823 -113.37438609 84.29567918 -111 88 C-109.11272779 89.63800984 -107.28623316 91.07185299 -105.25 92.5 C-104.64945801 92.92579346 -104.04891602 93.35158691 -103.43017578 93.7902832 C-95.19268181 99.45521986 -86.2784194 103.99050772 -77.46679688 108.68261719 C-55.4475389 120.44191212 -55.4475389 120.44191212 -52 131 C-51.01 128.03 -51.01 128.03 -50 125 C-48.02090602 124.97313447 -46.04171029 124.95366625 -44.0625 124.9375 C-42.96035156 124.92589844 -41.85820312 124.91429687 -40.72265625 124.90234375 C-38 125 -38 125 -37 126 C-36.91156207 128.44830426 -36.88471248 130.86820599 -36.90234375 133.31640625 C-36.90446617 134.41298805 -36.90446617 134.41298805 -36.90663147 135.53172302 C-36.91224592 137.87535632 -36.92480078 140.21889539 -36.9375 142.5625 C-36.94251314 144.14778508 -36.94707637 145.73307166 -36.95117188 147.31835938 C-36.96222003 151.2122761 -36.97949428 155.10612205 -37 159 C-33.7 159 -30.4 159 -27 159 C-26.96971063 154.73034861 -26.9857321 150.46399438 -27.04272461 146.19482422 C-27.05577862 144.74598965 -27.05667746 143.29698822 -27.04467773 141.84814453 C-26.77153689 131.90986333 -26.77153689 131.90986333 -31.28125 123.38671875 C-32.50847706 122.24439222 -33.74717253 121.11419006 -35 120 C-38.1617224 115.77568886 -41.09850572 111.40565077 -44 107 C-44.37898437 106.42459473 -44.75796875 105.84918945 -45.1484375 105.25634766 C-46.25858458 103.55428164 -47.35146176 101.8425317 -48.4375 100.125 C-49.07558594 99.11695313 -49.71367187 98.10890625 -50.37109375 97.0703125 C-55.16874917 88.02724976 -55.30770766 78.41571565 -52.375 68.75 C-48.48249838 58.31101839 -41.02666775 50.11309362 -30.9296875 45.3125 C-22.3944568 41.86470403 -13.78932766 42.45694929 -4.75 42.6875 C-3.02216802 42.71263741 -1.29430044 42.73544089 0.43359375 42.75585938 C4.62329163 42.81037131 8.81124198 42.89633366 13 43 C13.62522506 41.11741811 13.62522506 41.11741811 14 39 C12.75053932 36.51554088 12.75053932 36.51554088 10.875 34 C4.10827937 23.85667228 -0.65206673 12.38926789 0 0 Z " fill="#259DC8" transform="translate(405,573)"/>
<path d="M0 0 C0 0.66 0 1.32 0 2 C-1.16015625 2.47308594 -2.3203125 2.94617188 -3.515625 3.43359375 C-18.94034686 9.89241678 -37.1404526 19.68360085 -44 36 C-44.51111763 40.38100823 -44.37438609 43.29567918 -42 47 C-40.112814 48.63793502 -38.28612375 50.07186931 -36.25 51.5 C-35.65380859 51.92289307 -35.05761719 52.34578613 -34.44335938 52.78149414 C-23.6255595 60.222102 -11.72411493 66.13794253 0 72 C0 104.01 0 136.02 0 169 C-42.9 169 -85.8 169 -130 169 C-130 168.34 -130 167.68 -130 167 C-128.15535156 166.72736328 -128.15535156 166.72736328 -126.2734375 166.44921875 C-124.64054328 166.19583861 -123.00773519 165.94190292 -121.375 165.6875 C-120.16263672 165.51057617 -120.16263672 165.51057617 -118.92578125 165.33007812 C-114.08644655 164.56286653 -110.34388706 163.38579643 -106 161 C-105.34 161 -104.68 161 -104 161 C-103.505 158.03 -103.505 158.03 -103 155 C-104.299375 155.020625 -105.59875 155.04125 -106.9375 155.0625 C-108.29165633 155.08399454 -109.64756083 155.07148199 -111 155 C-111.33 154.67 -111.66 154.34 -112 154 C-111.98839844 153.3503125 -111.97679687 152.700625 -111.96484375 152.03125 C-111.91652361 147.55818564 -112.12041527 144.94360996 -115.25390625 141.58203125 C-117.07615733 140.0760172 -118.89906813 138.57080104 -120.72265625 137.06640625 C-123 135 -123 135 -124.4375 131.75 C-123.60957697 124.65351691 -120.65333071 118.16460914 -117.36328125 111.8671875 C-113.21067406 103.84350581 -112.24089273 97.2358011 -112.10546875 88.359375 C-112 85 -112 85 -111 84 C-108.70833333 84 -106.41666667 84 -104.125 84 C-95.47747481 83.67162596 -91.08746129 80.0407783 -85 74 C-83.31697819 72.51573996 -81.62954229 71.03646851 -79.9375 69.5625 C-78.28538369 68.04849436 -76.63953047 66.52762601 -75 65 C-74.18789063 64.25363281 -73.37578125 63.50726562 -72.5390625 62.73828125 C-63.63626123 54.24270591 -56.79172884 44.31184615 -50.07910156 34.05786133 C-39.39429866 17.75262144 -21.21059269 0 0 0 Z " fill="#279DC7" transform="translate(336,614)"/>
<path d="M0 0 C13.64441207 7.95924038 25.0468622 15.47436578 34.58203125 28.09375 C38.9214466 33.58400786 43.76793689 36.26621017 49.97265625 39.421875 C57.82240768 43.51387445 62.3933855 49.50257352 65.4375 57.75 C67.31310015 61.65124832 69.32406594 62.84238653 73 65 C74.79467725 68.58935451 74.3700071 72.99348414 74.51757812 76.97070312 C74.71546621 81.00687338 75.02381024 84.43054999 77 88 C79.54775306 88.89386164 79.54775306 88.89386164 82 89 C81.01 89.495 81.01 89.495 80 90 C80 111.12 80 132.24 80 154 C53.6 154 27.2 154 0 154 C0 103.18 0 52.36 0 0 Z " fill="#289DC7" transform="translate(463,629)"/>
<path d="M0 0 C14.32278151 13.06872462 15.36502176 46.44499517 17.01269531 64.26757812 C17.11549805 65.34974609 17.21830078 66.43191406 17.32421875 67.546875 C17.40760498 68.50432617 17.49099121 69.46177734 17.5769043 70.44824219 C18.00468247 73.02824075 18.61181635 74.79267845 20 77 C23.7370992 78.8685496 28.10612897 78.50106902 32.06884766 77.45263672 C34.18915453 76.68746268 36.2476884 75.84168613 38.3125 74.9375 C39.05306641 74.62167969 39.79363281 74.30585937 40.55664062 73.98046875 C50.35246539 69.68360567 58.72457966 63.72250195 67 57 C67 60 67 60 65.6015625 61.76171875 C64.94929687 62.39722656 64.29703125 63.03273438 63.625 63.6875 C62.90441406 64.39003906 62.18382812 65.09257813 61.44140625 65.81640625 C58.13891185 68.77015724 54.61257329 71.37792496 51.00390625 73.9453125 C48.40514479 76.60992952 48.07683293 78.31201944 48 82 C49.41031873 85.10388139 51.74488025 87.46118715 54 90 C54.76763672 90.9590625 54.76763672 90.9590625 55.55078125 91.9375 C60.54668928 97.63398364 66.70980335 100.86788606 73.38964844 104.23583984 C83.59054817 109.51178906 88.61797092 116.64247672 93 127 C93.33 127.33 93.66 127.66 94 128 C94.09584998 129.54353131 94.1218807 131.09145108 94.12025452 132.63795471 C94.12231651 134.14194321 94.12231651 134.14194321 94.12442017 135.67631531 C94.11902725 137.34002922 94.11902725 137.34002922 94.11352539 139.03735352 C94.11367142 140.19817444 94.11381744 141.35899536 94.1139679 142.55499268 C94.11326817 146.41298252 94.10547298 150.27092478 94.09765625 154.12890625 C94.09579228 156.79548728 94.09431912 159.46206564 94.09336853 162.12864685 C94.09025548 168.4432888 94.08204244 174.75791351 94.07201904 181.07254785 C94.05976297 188.96437756 94.05427524 196.85621004 94.04882812 204.74804688 C94.03907701 218.83204469 94.01904673 232.91600488 94 247 C75.85 247 57.7 247 39 247 C39 225.88 39 204.76 39 183 C45.27 182.01 51.54 181.02 58 180 C64.3206152 178.3726011 64.3206152 178.3726011 70 175 C69.31258754 163.63019799 59.6221696 156.32990782 51.578125 149.19140625 C49.90209637 147.76678192 48.19314112 146.37971951 46.44921875 145.0390625 C41.95515967 141.29759704 38.57511408 136.59837995 35 132 C34.41476562 131.2884375 33.82953125 130.576875 33.2265625 129.84375 C29.25328652 124.59983246 27.92324617 119.19543158 26.53344727 112.87988281 C24.94493237 106.007389 21.86133116 101.44032577 17.421875 96.10253906 C12.41339699 89.54788318 12.07610213 83.75435128 11.875 75.6875 C11.75174294 73.09464657 11.62000985 70.50218431 11.48046875 67.91015625 C11.37484619 65.93813232 11.37484619 65.93813232 11.26708984 63.92626953 C10.06248171 46.21830977 6.60182899 28.7031521 2.56933594 11.44775391 C1.68328474 7.6383417 0.84351434 3.81903051 0 0 Z " fill="#FDFEFD" transform="translate(504,536)"/>
<path d="M0 0 C1.26245119 2.46209386 2.42390477 4.94342716 3.55859375 7.46875 C11.59400615 24.95528615 23.61740188 35.63643435 40.33984375 44.9375 C44.05570601 47.01128414 47.69127237 49.20333007 51.3125 51.4375 C52.38113281 52.09621094 53.44976562 52.75492188 54.55078125 53.43359375 C57 55 57 55 58 56 C58.096708 57.98694851 58.12187052 59.97739013 58.12025452 61.96669006 C58.12162918 63.26384445 58.12300385 64.56099884 58.12442017 65.89746094 C58.12088055 67.3483889 58.11724573 68.79931663 58.11352539 70.25024414 C58.11324353 71.76761371 58.11340123 73.28498342 58.1139679 74.80235291 C58.11425591 78.93440516 58.10835858 83.06642863 58.10139394 87.19847417 C58.09516102 91.51198892 58.09455665 95.82550427 58.09336853 100.13902283 C58.09025503 108.31300117 58.08204139 116.48696621 58.07201904 124.66093868 C58.06085848 133.96428969 58.0553476 143.26764132 58.05032361 152.57099736 C58.03985879 171.71400732 58.02151308 190.85699904 58 210 C42.49 210 26.98 210 11 210 C10.93234774 188.39082692 10.87705603 166.78173924 10.84456348 145.17248726 C10.8290774 135.13952984 10.80795472 125.10664275 10.77368164 115.07373047 C10.74383248 106.33170237 10.72443768 97.58972519 10.71773452 88.84764755 C10.71381463 84.21636203 10.70456644 79.58522224 10.68280983 74.95398331 C10.66251537 70.59888601 10.65615183 66.24399507 10.66067696 61.88885498 C10.65984858 60.28680171 10.65384109 58.68474185 10.64238358 57.08272934 C10.62754904 54.9023993 10.63101249 52.72285768 10.63923645 50.54251099 C10.63647107 49.32021349 10.63370569 48.09791599 10.63085651 46.83857918 C10.75267386 45.90184805 10.87449121 44.96511692 11 44 C11.99 43.34 12.98 42.68 14 42 C13.45160959 38.24613706 12.51217797 35.96345455 10.25 32.9375 C3.61235029 23.33205499 -0.62016907 11.78321238 0 0 Z " fill="#FDFEFE" transform="translate(405,573)"/>
<path d="M0 0 C0 0.66 0 1.32 0 2 C-1.16015625 2.47308594 -2.3203125 2.94617188 -3.515625 3.43359375 C-18.94034686 9.89241678 -37.1404526 19.68360085 -44 36 C-44.51111763 40.38100823 -44.37438609 43.29567918 -42 47 C-40.112814 48.63793502 -38.28612375 50.07186931 -36.25 51.5 C-35.65380859 51.92289307 -35.05761719 52.34578613 -34.44335938 52.78149414 C-23.6255595 60.222102 -11.72411493 66.13794253 0 72 C0 104.01 0 136.02 0 169 C-16.83 169 -33.66 169 -51 169 C-51.2263676 151.77029117 -51.41030556 134.54186547 -51.51812172 117.31107903 C-51.56952937 109.30921801 -51.63952121 101.30835133 -51.75439453 93.30712891 C-51.85455539 86.32729699 -51.91869573 79.3481856 -51.94088495 72.36765492 C-51.95384235 68.67635306 -51.98394392 64.98711106 -52.05730057 61.29647446 C-52.58876215 33.48696569 -52.58876215 33.48696569 -43.56820679 23.41116333 C-42.72069855 22.61547943 -41.87319031 21.81979553 -41 21 C-40.23724762 20.2052829 -39.47449524 19.4105658 -38.68862915 18.59176636 C-29.71646918 9.48938472 -13.03968955 0 0 0 Z " fill="#FBFDFD" transform="translate(336,614)"/>
<path d="M0 0 C1.16781006 0.00523682 2.33562012 0.01047363 3.53881836 0.01586914 C4.79887695 0.0190918 6.05893555 0.02231445 7.35717773 0.02563477 C8.6976732 0.03399136 10.03816799 0.04245632 11.37866211 0.05102539 C12.72306153 0.05603879 14.06746271 0.06060197 15.41186523 0.06469727 C18.71334151 0.07653051 22.01473014 0.09301568 25.31616211 0.11352539 C28.71350992 6.42718062 30.97270106 12.76709913 33.06616211 19.61352539 C33.38198242 20.62672852 33.69780273 21.63993164 34.02319336 22.68383789 C34.79363107 25.15857721 35.55778982 27.63506754 36.31616211 30.11352539 C37.25562331 27.32250473 38.19311999 24.53086027 39.12866211 21.73852539 C39.54196777 20.50682617 39.54196777 20.50682617 39.96362305 19.25024414 C41.66425221 14.1543944 43.27079721 9.05025732 44.67553711 3.86352539 C45.31616211 2.11352539 45.31616211 2.11352539 47.31616211 0.11352539 C50.09765625 -0.12939453 50.09765625 -0.12939453 53.60131836 -0.11694336 C54.85364258 -0.11500977 56.1059668 -0.11307617 57.39624023 -0.11108398 C59.36753906 -0.09271484 59.36753906 -0.09271484 61.37866211 -0.07397461 C63.35576172 -0.07300781 63.35576172 -0.07300781 65.37280273 -0.07202148 C75.17607088 -0.02656584 75.17607088 -0.02656584 76.31616211 1.11352539 C76.42076929 3.12758668 76.45472039 5.1453445 76.46142578 7.16210938 C76.46780563 8.45692734 76.47418549 9.7517453 76.48075867 11.08580017 C76.48228722 12.51040612 76.48340125 13.93501256 76.48413086 15.35961914 C76.48734173 16.81071506 76.49070567 18.26181066 76.49421692 19.71290588 C76.50021457 22.75864411 76.50205618 25.80435394 76.50146484 28.85009766 C76.5013632 32.75888396 76.5150152 36.66748871 76.53223705 40.57623196 C76.54333882 43.57445619 76.54538462 46.57263629 76.54485512 49.57087898 C76.546038 51.01222421 76.55047696 52.45357047 76.55818748 53.89489555 C76.56794997 55.90842235 76.56385482 57.92200207 76.55908203 59.93554688 C76.56050705 61.08280746 76.56193207 62.23006805 76.56340027 63.41209412 C76.31616211 66.11352539 76.31616211 66.11352539 74.31616211 68.11352539 C72.45263672 68.35644531 72.45263672 68.35644531 70.21850586 68.34399414 C69.41735352 68.34206055 68.61620117 68.34012695 67.79077148 68.33813477 C66.95352539 68.32588867 66.1162793 68.31364258 65.25366211 68.30102539 C63.99199219 68.30005859 63.99199219 68.30005859 62.70483398 68.29907227 C56.45639395 68.25375723 56.45639395 68.25375723 55.31616211 67.11352539 C55.15580651 64.08545495 55.05655763 61.07767085 54.99975586 58.04711914 C54.97897476 57.13849625 54.95819366 56.22987335 54.93678284 55.29371643 C54.87118539 52.37956593 54.81235531 49.46532235 54.75366211 46.55102539 C54.71048657 44.58031248 54.6668726 42.60960913 54.62280273 40.63891602 C54.51549368 35.79721551 54.41425536 30.95542102 54.31616211 26.11352539 C53.92759033 27.35030029 53.53901855 28.5870752 53.13867188 29.86132812 C51.70120137 34.43376673 50.2596743 39.00491776 48.81689453 43.57568359 C48.19208158 45.55710316 47.56838106 47.53887387 46.94580078 49.52099609 C46.05262256 52.36396035 45.1554992 55.20565294 44.25756836 58.04711914 C43.97837051 58.93878281 43.69917267 59.83044647 43.41151428 60.74913025 C43.15132004 61.56990555 42.89112579 62.39068085 42.62304688 63.23632812 C42.39432388 63.96246811 42.16560089 64.68860809 41.9299469 65.43675232 C41.31616211 67.11352539 41.31616211 67.11352539 40.31616211 68.11352539 C38.29652012 68.18596592 36.27449087 68.19729727 34.25366211 68.17602539 C33.14893555 68.16700195 32.04420898 68.15797852 30.90600586 68.14868164 C30.05135742 68.13708008 29.19670898 68.12547852 28.31616211 68.11352539 C24.83489576 60.9355966 22.4661361 53.55973091 20.19116211 45.92602539 C19.50159339 43.64070751 18.81150647 41.35554591 18.12084961 39.07055664 C17.67201416 37.56972534 17.67201416 37.56972534 17.21411133 36.03857422 C16.29557413 33.04646052 15.31738183 30.07888803 14.31616211 27.11352539 C14.29110596 28.32000732 14.2660498 29.52648926 14.24023438 30.76953125 C14.14633688 35.229282 14.04607378 39.68887052 13.94384766 44.1484375 C13.9004317 46.08166724 13.85876168 48.01493698 13.81884766 49.94824219 C13.7613058 52.72090741 13.69756591 55.49336996 13.63256836 58.26586914 C13.60749962 59.57055397 13.60749962 59.57055397 13.58192444 60.90159607 C13.43003382 66.99965368 13.43003382 66.99965368 12.31616211 68.11352539 C10.00622829 68.23909701 7.69197675 68.28928268 5.37866211 68.30102539 C4.11151367 68.31520508 2.84436523 68.32938477 1.53881836 68.34399414 C-1.68383789 68.11352539 -1.68383789 68.11352539 -3.68383789 66.11352539 C-3.93107605 63.41209412 -3.93107605 63.41209412 -3.92675781 59.93554688 C-3.92983444 58.63757675 -3.93291107 57.33960663 -3.93608093 56.00230408 C-3.9291837 54.57974064 -3.92191677 53.15717895 -3.91430664 51.73461914 C-3.91311496 50.28255758 -3.91266165 48.83049525 -3.91291809 47.37843323 C-3.91135293 44.33443379 -3.90306012 41.2905519 -3.88964844 38.24658203 C-3.87264341 34.33664763 -3.8688345 30.42684232 -3.86959362 26.51687527 C-3.86932227 23.51868956 -3.86384693 20.5205323 -3.85659218 17.52235603 C-3.85340107 16.08019285 -3.85143708 14.63802643 -3.85069847 13.19585991 C-3.84854045 11.18459801 -3.83901138 9.17334802 -3.82910156 7.16210938 C-3.82528976 6.01564438 -3.82147797 4.86917938 -3.81755066 3.68797302 C-3.63418495 0.15752926 -3.54447594 0.14993007 0 0 Z " fill="#FAFAFA" transform="translate(486.683837890625,800.886474609375)"/>
<path d="M0 0 C7.5593173 5.42240781 11.67611489 13.30890149 13.25 22.375 C14.29999636 32.55089069 13.12224817 42.59423032 7.33203125 51.23828125 C2.16664204 57.40932145 -3.55174313 62.6476986 -11.80566406 63.61621094 C-23.32551763 64.41599379 -32.78326351 63.87556805 -42 56.4375 C-49.35793958 49.26293587 -51.89305116 42.02994785 -52.28442383 31.90258789 C-52.40654235 20.36504234 -50.81680092 11.74373174 -42.671875 3.12890625 C-30.42795433 -8.04491566 -13.93037829 -8.38618091 0 0 Z " fill="#FCFCFC" transform="translate(329.75,805.625)"/>
<path d="M0 0 C16.04968823 -1.05988507 16.04968823 -1.05988507 20.31811523 1.25976562 C21.84563367 3.08787796 22.90508873 4.88623355 24 7 C24.9965838 8.3963434 26.00892836 9.78154622 27.03515625 11.15625 C28.0479457 12.60159856 29.05704013 14.04954305 30.0625 15.5 C31.07405126 16.94803368 32.08576823 18.39595162 33.09765625 19.84375 C33.57992676 20.53855469 34.06219727 21.23335937 34.55908203 21.94921875 C35.96915778 23.95610392 37.41823364 25.93023751 38.87109375 27.90625 C41 31 41 31 41 33 C41.66 33 42.32 33 43 33 C43 22.11 43 11.22 43 0 C48.28 0 53.56 0 59 0 C59.02255338 8.71844341 59.04091645 17.43686759 59.05181217 26.15533352 C59.05704041 30.20325742 59.06413699 34.25116041 59.07543945 38.29907227 C59.08627043 42.20235971 59.09227728 46.10562699 59.09487724 50.0089283 C59.09673111 51.50133647 59.100351 52.99374348 59.10573006 54.48614311 C59.11294331 56.56948139 59.11399083 58.65273531 59.11352539 60.73608398 C59.115746 61.92411118 59.11796661 63.11213837 59.12025452 64.33616638 C59 67 59 67 58 68 C55.0859375 68.37890625 55.0859375 68.37890625 51.375 68.5625 C50.16585937 68.64628906 48.95671875 68.73007812 47.7109375 68.81640625 C42.23365124 67.61140327 40.22812753 64.38728526 37 60 C36.44860352 59.2685376 35.89720703 58.5370752 35.32910156 57.78344727 C33.66864445 55.54232287 32.0481855 53.27710905 30.4375 51 C29.35359844 49.47864356 28.2689673 47.95780664 27.18359375 46.4375 C26.40024658 45.33535156 26.40024658 45.33535156 25.60107422 44.2109375 C23.49343739 41.30048322 21.29913475 38.45988487 19.08618164 35.62890625 C18 34 18 34 18 32 C17.34 32 16.68 32 16 32 C16 43.88 16 55.76 16 68 C11.05 68 6.1 68 1 68 C0 67 0 67 -0.12025452 64.33616638 C-0.11803391 63.14813919 -0.11581329 61.960112 -0.11352539 60.73608398 C-0.11367142 60.08244873 -0.11381744 59.42881348 -0.1139679 58.75537109 C-0.11326883 56.58557872 -0.10547678 54.41587121 -0.09765625 52.24609375 C-0.09579205 50.74536689 -0.09436816 49.24463943 -0.09336853 47.74391174 C-0.08954352 43.78681774 -0.0797134 39.82976022 -0.06866455 35.87268066 C-0.05845006 31.83765151 -0.05387083 27.80261647 -0.04882812 23.76757812 C-0.03809111 15.84503531 -0.0210149 7.92252219 0 0 Z " fill="#FDFDFD" transform="translate(204,801)"/>
<path d="M0 0 C4.875 2.75 4.875 2.75 6 5 C6.20802924 7.4414543 6.37410021 9.86678005 6.5 12.3125 C6.73731582 16.63927588 7.01915093 20.77417526 8 25 C9.65 25.33 11.3 25.66 13 26 C13.33 26.99 13.66 27.98 14 29 C14.93972656 29.09087891 14.93972656 29.09087891 15.8984375 29.18359375 C16.71570313 29.26738281 17.53296875 29.35117187 18.375 29.4375 C19.18710937 29.51871094 19.99921875 29.59992187 20.8359375 29.68359375 C23 30 23 30 25 31 C25.33 29.35 25.66 27.7 26 26 C28.31 26 30.62 26 33 26 C33 26.66 33 27.32 33 28 C32.01 28 31.02 28 30 28 C30 28.66 30 29.32 30 30 C28.68 30 27.36 30 26 30 C26 30.66 26 31.32 26 32 C27.32 32 28.64 32 30 32 C30.33 55.76 30.66 79.52 31 104 C32.32 104.33 33.64 104.66 35 105 C35.33 106.65 35.66 108.3 36 110 C35.01 110.33 34.02 110.66 33 111 C32.34 109.68 31.68 108.36 31 107 C30.5877417 107.4844458 30.1754834 107.9688916 29.75073242 108.46801758 C27.66668126 110.29167133 26.71459137 110.40922589 23.98828125 110.51171875 C23.23095703 110.54716797 22.47363281 110.58261719 21.69335938 110.61914062 C20.90767578 110.64169922 20.12199219 110.66425781 19.3125 110.6875 C18.51521484 110.72166016 17.71792969 110.75582031 16.89648438 110.79101562 C14.93148096 110.87338104 12.96576304 110.93837067 11 111 C10.67 112.65 10.34 114.3 10 116 C5.545 116.495 5.545 116.495 1 117 C-0.20593342 114.58813315 -0.12318918 113.08766923 -0.12025452 110.39364624 C-0.12162918 109.4232692 -0.12300385 108.45289215 -0.12442017 107.45310974 C-0.12082489 106.38496536 -0.11722961 105.31682098 -0.11352539 104.21630859 C-0.11367142 103.09435593 -0.11381744 101.97240326 -0.1139679 100.81645203 C-0.11326909 97.09376111 -0.10547815 93.37111972 -0.09765625 89.6484375 C-0.09579196 87.07296781 -0.09436811 84.49749776 -0.09336853 81.92202759 C-0.0899355 75.82699678 -0.08204739 69.73198653 -0.07201904 63.63696349 C-0.06085056 56.69872028 -0.0553456 49.76047624 -0.05032361 42.82222629 C-0.03986458 28.54814124 -0.02226971 14.27407126 0 0 Z " fill="#259EC9" transform="translate(598,664)"/>
<path d="M0 0 C3.85390817 -0.11693501 7.70735512 -0.1874962 11.5625 -0.25 C12.64853516 -0.28351562 13.73457031 -0.31703125 14.85351562 -0.3515625 C21.50985222 -0.4324906 25.62169736 -0.03372698 31 4 C35.11006407 8.63699536 35.41435787 12.99625205 35.5625 19.0625 C35.58948975 19.74731445 35.61647949 20.43212891 35.64428711 21.13769531 C35.60107279 26.82003506 33.81114375 29.12845778 30 33 C30.78375 33.886875 31.5675 34.77375 32.375 35.6875 C36.83309686 40.73218855 37.40500331 45.69026519 37.23828125 52.21875 C36.8018402 57.31294717 35.90285385 61.14966653 32.16015625 64.7890625 C27.15333715 68.72365777 23.42631547 70.12437686 17.05078125 70.1328125 C15.65569336 70.13474609 15.65569336 70.13474609 14.23242188 70.13671875 C13.26884766 70.13285156 12.30527344 70.12898437 11.3125 70.125 C9.84973633 70.13080078 9.84973633 70.13080078 8.35742188 70.13671875 C7.43123047 70.13542969 6.50503906 70.13414062 5.55078125 70.1328125 C4.70169189 70.13168457 3.85260254 70.13055664 2.9777832 70.12939453 C1 70 1 70 0 69 C0.01160156 68.3503125 0.02320313 67.700625 0.03515625 67.03125 C0.08347639 62.55818564 -0.12041527 59.94360996 -3.25390625 56.58203125 C-5.07615733 55.0760172 -6.89906813 53.57080104 -8.72265625 52.06640625 C-11 50 -11 50 -12.4375 46.75 C-11.60957697 39.65351691 -8.65333071 33.16460914 -5.36328125 26.8671875 C-0.68549016 17.8287437 -0.02392787 9.98988504 0 0 Z " fill="#FAFDFC" transform="translate(224,699)"/>
<path d="M0 0 C1.13787964 -0.00315216 2.27575928 -0.00630432 3.44812012 -0.009552 C4.6866272 -0.00752777 5.92513428 -0.00550354 7.20117188 -0.00341797 C8.46255981 -0.00437469 9.72394775 -0.00533142 11.02355957 -0.00631714 C13.69689325 -0.00699922 16.37013624 -0.00564076 19.04345703 -0.00097656 C22.47698878 0.00472073 25.91044237 0.00144152 29.34397125 -0.00454903 C32.6088743 -0.00902309 35.87376781 -0.0058943 39.13867188 -0.00341797 C40.37717896 -0.0054422 41.61568604 -0.00746643 42.89172363 -0.009552 C44.02960327 -0.00639984 45.16748291 -0.00324768 46.33984375 0 C47.34720581 0.00079559 48.35456787 0.00159119 49.39245605 0.00241089 C51.66992188 0.12939453 51.66992188 0.12939453 52.66992188 1.12939453 C52.76885127 3.2942025 52.79963288 5.46233238 52.79492188 7.62939453 C52.79878906 9.40830078 52.79878906 9.40830078 52.80273438 11.22314453 C52.66992188 14.12939453 52.66992188 14.12939453 51.66992188 15.12939453 C50.32724774 15.21571327 48.98017866 15.23645926 47.63476562 15.22705078 C46.82587891 15.22382812 46.01699219 15.22060547 45.18359375 15.21728516 C44.33345703 15.20890625 43.48332031 15.20052734 42.60742188 15.19189453 C41.75341797 15.18738281 40.89941406 15.18287109 40.01953125 15.17822266 C37.90296524 15.16639827 35.78643502 15.14846222 33.66992188 15.12939453 C33.67214249 15.77863388 33.6743631 16.42787323 33.676651 17.0967865 C33.69870189 23.82827201 33.71382765 30.55974734 33.72485352 37.29125977 C33.72989551 39.80656348 33.7367289 42.32186425 33.74536133 44.8371582 C33.75743281 48.44369228 33.76315136 52.05018776 33.76757812 55.65673828 C33.77273941 56.78901352 33.7779007 57.92128876 33.78321838 59.08787537 C33.78329391 60.12887894 33.78336945 61.16988251 33.78344727 62.24243164 C33.78566788 63.16398544 33.78788849 64.08553925 33.79017639 65.03501892 C33.66992188 67.12939453 33.66992188 67.12939453 32.66992188 68.12939453 C31.26643452 68.22799584 29.8581171 68.2601839 28.45117188 68.26220703 C27.17693359 68.26414062 27.17693359 68.26414062 25.87695312 68.26611328 C24.98363281 68.26224609 24.0903125 68.25837891 23.16992188 68.25439453 C22.27660156 68.25826172 21.38328125 68.26212891 20.46289062 68.26611328 C19.61339844 68.26482422 18.76390625 68.26353516 17.88867188 68.26220703 C17.10427734 68.2610791 16.31988281 68.25995117 15.51171875 68.25878906 C13.66992188 68.12939453 13.66992188 68.12939453 12.66992188 67.12939453 C12.57651754 65.50264675 12.55247017 63.87185402 12.55639648 62.24243164 C12.55647202 61.20142807 12.55654755 60.1604245 12.55662537 59.08787537 C12.56178665 57.95560013 12.56694794 56.82332489 12.57226562 55.65673828 C12.57368057 54.50395889 12.57509552 53.3511795 12.57655334 52.16346741 C12.58217182 48.4645839 12.59472746 44.76575989 12.60742188 41.06689453 C12.61243449 38.56624436 12.61699781 36.06559325 12.62109375 33.56494141 C12.63214726 27.41973865 12.64890336 21.27457084 12.66992188 15.12939453 C11.38214844 15.14099609 10.094375 15.15259766 8.76757812 15.16455078 C7.08919415 15.17392723 5.41080862 15.18302758 3.73242188 15.19189453 C2.4572168 15.20446289 2.4572168 15.20446289 1.15625 15.21728516 C0.34736328 15.22050781 -0.46152344 15.22373047 -1.29492188 15.22705078 C-2.04378662 15.2322876 -2.79265137 15.23752441 -3.56420898 15.24291992 C-5.33007812 15.12939453 -5.33007812 15.12939453 -6.33007812 14.12939453 C-6.42900752 11.96458657 -6.45978913 9.79645668 -6.45507812 7.62939453 C-6.45765625 6.44345703 -6.46023438 5.25751953 -6.46289062 4.03564453 C-6.23890027 -0.8657915 -4.41958953 0.0034905 0 0 Z " fill="#FBFBFB" transform="translate(619.330078125,800.87060546875)"/>
<path d="M0 0 C1.093125 0.00257813 2.18625 0.00515625 3.3125 0.0078125 C4.405625 0.00523437 5.49875 0.00265625 6.625 0 C9.3125 0.1328125 9.3125 0.1328125 10.3125 1.1328125 C10.41988912 2.83515434 10.45874293 4.54187147 10.47021484 6.24755859 C10.48047699 7.33894135 10.49073914 8.4303241 10.50131226 9.55477905 C10.50861359 10.74326447 10.51591492 11.93174988 10.5234375 13.15625 C10.55150337 15.64583994 10.58016782 18.13542319 10.609375 20.625 C10.65069397 24.57096186 10.68755991 28.51679848 10.71386719 32.46289062 C10.74138662 36.25677654 10.78725921 40.05008464 10.8359375 43.84375 C10.83919037 45.02818695 10.84244324 46.2126239 10.84579468 47.43295288 C10.86236115 48.53063995 10.87892761 49.62832703 10.89599609 50.75927734 C10.90812637 52.21036392 10.90812637 52.21036392 10.92050171 53.69076538 C11.37246732 56.50639326 12.10995869 57.39322486 14.3125 59.1328125 C16.80802484 58.35151179 16.80802484 58.35151179 19.3125 57.1328125 C20.31119749 54.13672002 20.45983241 52.07588684 20.50195312 48.94287109 C20.51867065 47.88522552 20.53538818 46.82757996 20.5526123 45.73788452 C20.56618774 44.59719513 20.57976318 43.45650574 20.59375 42.28125 C20.61215942 41.11147614 20.63056885 39.94170227 20.64953613 38.73648071 C20.72837178 33.72024853 20.79614272 28.70388094 20.86474609 23.6875 C20.91631687 20.03117912 20.97361548 16.37497949 21.03125 12.71875 C21.04482544 11.57401215 21.05840088 10.42927429 21.0723877 9.24984741 C21.08910522 8.19850616 21.10582275 7.14716492 21.12304688 6.06396484 C21.14183899 4.66855972 21.14183899 4.66855972 21.16101074 3.2449646 C21.3125 1.1328125 21.3125 1.1328125 22.3125 0.1328125 C24.14365883 0.03430079 25.97869933 0.00308621 27.8125 0.0078125 C28.8128125 0.00523437 29.813125 0.00265625 30.84375 0 C33.3125 0.1328125 33.3125 0.1328125 34.3125 1.1328125 C34.43763892 2.89471906 34.49322812 4.66161156 34.52124023 6.42773438 C34.54053085 7.55981323 34.55982147 8.69189209 34.57969666 9.85827637 C34.63733527 15.07018339 34.68708553 20.28200497 34.7175293 25.49414062 C34.73526216 28.23941454 34.76993936 30.98364549 34.82006836 33.72851562 C34.89226013 37.68615117 34.91455942 41.64329813 34.93359375 45.6015625 C34.96142441 46.82065308 34.98925507 48.03974365 35.01792908 49.29577637 C34.99943011 57.01202836 33.86120941 62.50214276 28.3125 68.1328125 C22.82228785 71.7213475 17.7975469 72.95631052 11.3125 72.1328125 C5.21306337 70.18422121 0.73881486 66.53903941 -2.6875 61.1328125 C-3.7176023 57.90470966 -3.81416157 54.93045808 -3.81689453 51.55395508 C-3.82004669 50.43632278 -3.82319885 49.31869049 -3.82644653 48.16719055 C-3.8244223 46.96604111 -3.82239807 45.76489166 -3.8203125 44.52734375 C-3.82126923 43.2923967 -3.82222595 42.05744965 -3.82321167 40.78507996 C-3.82406612 37.50902544 -3.8200428 34.23301843 -3.81445312 30.95697021 C-3.8124975 28.94273377 -3.81445186 26.92854071 -3.81787109 24.91430664 C-3.82402033 21.05613155 -3.82330843 17.19802146 -3.8203125 13.33984375 C-3.82233673 12.13262161 -3.82436096 10.92539948 -3.82644653 9.68159485 C-3.82329437 8.57341904 -3.82014221 7.46524323 -3.81689453 6.32348633 C-3.81609894 5.34293777 -3.81530334 4.36238922 -3.81448364 3.35212708 C-3.62706344 0.07655261 -3.30996103 0.16357366 0 0 Z " fill="#F9FBFB" transform="translate(357.6875,697.8671875)"/>
<path d="M0 0 C6.6 0 13.2 0 20 0 C20.33 17.16 20.66 34.32 21 52 C35.85 52.495 35.85 52.495 51 53 C51 57.62 51 62.24 51 67 C49.3859075 68.6140925 47.63523592 68.12734318 45.40429688 68.12939453 C43.93772644 68.13412277 43.93772644 68.13412277 42.44152832 68.13894653 C41.37801147 68.1369223 40.31449463 68.13489807 39.21875 68.1328125 C37.59302063 68.13424759 37.59302063 68.13424759 35.93444824 68.13571167 C33.6377761 68.13639365 31.34110205 68.13453811 29.04443359 68.13037109 C25.51525572 68.12502312 21.98620513 68.1303155 18.45703125 68.13671875 C16.23177055 68.13605797 14.00650993 68.13477682 11.78125 68.1328125 C10.71773315 68.13483673 9.65421631 68.13686096 8.55847168 68.13894653 C7.58075806 68.13579437 6.60304443 68.13264221 5.59570312 68.12939453 C4.73046021 68.12859894 3.86521729 68.12780334 2.97375488 68.12698364 C1 68 1 68 0 67 C-0.09417773 64.91380978 -0.11742878 62.82439523 -0.11352539 60.73608398 C-0.11367142 60.08244873 -0.11381744 59.42881348 -0.1139679 58.75537109 C-0.11326883 56.58557872 -0.10547678 54.41587121 -0.09765625 52.24609375 C-0.09579205 50.74536689 -0.09436816 49.24463943 -0.09336853 47.74391174 C-0.08954352 43.78681774 -0.0797134 39.82976022 -0.06866455 35.87268066 C-0.05845006 31.83765151 -0.05387083 27.80261647 -0.04882812 23.76757812 C-0.0380911 15.84503344 -0.02049445 7.92252546 0 0 Z " fill="#FBFBFB" transform="translate(382,801)"/>
<path d="M0 0 C6.6 0 13.2 0 20 0 C20.02255338 8.71844341 20.04091645 17.43686759 20.05181217 26.15533352 C20.05704041 30.20325742 20.06413699 34.25116041 20.07543945 38.29907227 C20.08627043 42.20235971 20.09227728 46.10562699 20.09487724 50.0089283 C20.09673111 51.50133647 20.100351 52.99374348 20.10573006 54.48614311 C20.11294331 56.56948139 20.11399083 58.65273531 20.11352539 60.73608398 C20.115746 61.92411118 20.11796661 63.11213837 20.12025452 64.33616638 C20 67 20 67 19 68 C17.66956375 68.0983721 16.33406656 68.13078592 15 68.1328125 C14.195625 68.13410156 13.39125 68.13539063 12.5625 68.13671875 C11.716875 68.13285156 10.87125 68.12898437 10 68.125 C9.154375 68.12886719 8.30875 68.13273438 7.4375 68.13671875 C6.633125 68.13542969 5.82875 68.13414062 5 68.1328125 C4.2575 68.13168457 3.515 68.13055664 2.75 68.12939453 C1 68 1 68 0 67 C-0.09417773 64.91380978 -0.11742878 62.82439523 -0.11352539 60.73608398 C-0.11367142 60.08244873 -0.11381744 59.42881348 -0.1139679 58.75537109 C-0.11326883 56.58557872 -0.10547678 54.41587121 -0.09765625 52.24609375 C-0.09579205 50.74536689 -0.09436816 49.24463943 -0.09336853 47.74391174 C-0.08954352 43.78681774 -0.0797134 39.82976022 -0.06866455 35.87268066 C-0.05845006 31.83765151 -0.05387083 27.80261647 -0.04882812 23.76757812 C-0.0380911 15.84503344 -0.02049445 7.92252546 0 0 Z " fill="#FDFDFD" transform="translate(579,801)"/>
<path d="M0 0 C6.6 0 13.2 0 20 0 C20.02255338 8.71844341 20.04091645 17.43686759 20.05181217 26.15533352 C20.05704041 30.20325742 20.06413699 34.25116041 20.07543945 38.29907227 C20.08627043 42.20235971 20.09227728 46.10562699 20.09487724 50.0089283 C20.09673111 51.50133647 20.100351 52.99374348 20.10573006 54.48614311 C20.11294331 56.56948139 20.11399083 58.65273531 20.11352539 60.73608398 C20.115746 61.92411118 20.11796661 63.11213837 20.12025452 64.33616638 C20 67 20 67 19 68 C17.66956375 68.0983721 16.33406656 68.13078592 15 68.1328125 C14.195625 68.13410156 13.39125 68.13539063 12.5625 68.13671875 C11.716875 68.13285156 10.87125 68.12898437 10 68.125 C9.154375 68.12886719 8.30875 68.13273438 7.4375 68.13671875 C6.633125 68.13542969 5.82875 68.13414062 5 68.1328125 C4.2575 68.13168457 3.515 68.13055664 2.75 68.12939453 C1 68 1 68 0 67 C-0.09417773 64.91380978 -0.11742878 62.82439523 -0.11352539 60.73608398 C-0.11367142 60.08244873 -0.11381744 59.42881348 -0.1139679 58.75537109 C-0.11326883 56.58557872 -0.10547678 54.41587121 -0.09765625 52.24609375 C-0.09579205 50.74536689 -0.09436816 49.24463943 -0.09336853 47.74391174 C-0.08954352 43.78681774 -0.0797134 39.82976022 -0.06866455 35.87268066 C-0.05845006 31.83765151 -0.05387083 27.80261647 -0.04882812 23.76757812 C-0.0380911 15.84503344 -0.02049445 7.92252546 0 0 Z " fill="#FDFDFD" transform="translate(447,801)"/>
<path d="M0 0 C1.093125 0.00257813 2.18625 0.00515625 3.3125 0.0078125 C4.405625 0.00523437 5.49875 0.00265625 6.625 0 C9.3125 0.1328125 9.3125 0.1328125 10.3125 1.1328125 C10.40620624 2.91273174 10.42994271 4.69637989 10.42602539 6.47875977 C10.42594986 7.6198671 10.42587433 8.76097443 10.42579651 9.93666077 C10.42063522 11.1783049 10.41547394 12.41994904 10.41015625 13.69921875 C10.4087413 14.96297836 10.40732635 16.22673798 10.40586853 17.52879333 C10.40120582 20.89406139 10.3922148 24.2592624 10.38116455 27.62451172 C10.37094846 31.0563092 10.36637049 34.48811359 10.36132812 37.91992188 C10.3502738 44.65757314 10.33299637 51.39518361 10.3125 58.1328125 C16.2525 58.1328125 22.1925 58.1328125 28.3125 58.1328125 C28.3125 62.4228125 28.3125 66.7128125 28.3125 71.1328125 C23.91593827 71.15746754 19.5194128 71.17565092 15.12280273 71.18774414 C13.62605082 71.19278371 12.12930384 71.19961537 10.63256836 71.20825195 C8.48550193 71.22033409 6.33850038 71.22604441 4.19140625 71.23046875 C2.25116577 71.23832397 2.25116577 71.23832397 0.27172852 71.24633789 C-2.6875 71.1328125 -2.6875 71.1328125 -3.6875 70.1328125 C-3.78702293 67.99080926 -3.81549679 65.84548545 -3.81689453 63.70117188 C-3.81864685 63.02963577 -3.82039917 62.35809967 -3.82220459 61.66621399 C-3.8266223 59.43630422 -3.82368542 57.20647314 -3.8203125 54.9765625 C-3.82098556 53.43339014 -3.82195561 51.89021789 -3.82321167 50.3470459 C-3.82468853 47.1087951 -3.82253447 43.87057183 -3.81787109 40.63232422 C-3.8121738 36.47238727 -3.81545287 32.31251484 -3.82144356 28.15258026 C-3.82504949 24.96481842 -3.82391044 21.77707199 -3.82131577 18.58930969 C-3.82064658 17.05503838 -3.82147461 15.52076568 -3.82379532 13.98649597 C-3.82632238 11.84577709 -3.82248054 9.70516408 -3.81689453 7.56445312 C-3.81609894 6.34391235 -3.81530334 5.12337158 -3.81448364 3.86584473 C-3.64502548 0.21864567 -3.64103071 0.17993466 0 0 Z " fill="#F7FBFB" transform="translate(631.6875,697.8671875)"/>
<path d="M0 0 C14.32278151 13.06872462 15.36502176 46.44499517 17.01269531 64.26757812 C17.11549805 65.34974609 17.21830078 66.43191406 17.32421875 67.546875 C17.40760498 68.50432617 17.49099121 69.46177734 17.5769043 70.44824219 C18.00468247 73.02824075 18.61181635 74.79267845 20 77 C23.32994212 78.66497106 26.32267627 78.20717317 30 78 C32.97 77.01 35.94 76.02 39 75 C39 95.13 39 115.26 39 136 C32.18504794 129.18504794 29.15916056 124.48498595 27.0625 115.0625 C25.33451609 107.34976979 22.43604613 102.13133517 17.421875 96.10253906 C12.41339699 89.54788318 12.07610213 83.75435128 11.875 75.6875 C11.75174294 73.09464657 11.62000985 70.50218431 11.48046875 67.91015625 C11.37484619 65.93813232 11.37484619 65.93813232 11.26708984 63.92626953 C10.06248171 46.21830977 6.60182899 28.7031521 2.56933594 11.44775391 C1.68328474 7.6383417 0.84351434 3.81903051 0 0 Z " fill="#2A9DC6" transform="translate(504,536)"/>
<path d="M0 0 C3.96 0 7.92 0 12 0 C12 19.14 12 38.28 12 58 C17.94 58 23.88 58 30 58 C31 59 31 59 31.1328125 61.46875 C31.13023437 62.4690625 31.12765625 63.469375 31.125 64.5 C31.12886719 66.00046875 31.12886719 66.00046875 31.1328125 67.53125 C31 70 31 70 30 71 C27.79349344 71.10012401 25.58377614 71.1308118 23.375 71.1328125 C22.71290527 71.13376923 22.05081055 71.13472595 21.36865234 71.13571167 C19.96647039 71.13639326 18.5642853 71.13454042 17.16210938 71.13037109 C15.00904287 71.12502246 12.85618498 71.1303167 10.703125 71.13671875 C9.34374954 71.13605796 7.9843742 71.13477679 6.625 71.1328125 C5.37976563 71.13168457 4.13453125 71.13055664 2.8515625 71.12939453 C0 71 0 71 -1 70 C-1.09952293 67.85799676 -1.12799679 65.71267295 -1.12939453 63.56835938 C-1.13114685 62.89682327 -1.13289917 62.22528717 -1.13470459 61.53340149 C-1.1391223 59.30349172 -1.13618542 57.07366064 -1.1328125 54.84375 C-1.13348556 53.30057764 -1.13445561 51.75740539 -1.13571167 50.2142334 C-1.13718853 46.9759826 -1.13503447 43.73775933 -1.13037109 40.49951172 C-1.1246738 36.33957477 -1.12795287 32.17970234 -1.13394356 28.01976776 C-1.13754949 24.83200592 -1.13641044 21.64425949 -1.13381577 18.45649719 C-1.13314658 16.92222588 -1.13397461 15.38795318 -1.13629532 13.85368347 C-1.13882238 11.71296459 -1.13498054 9.57235158 -1.12939453 7.43164062 C-1.12859894 6.21109985 -1.12780334 4.99055908 -1.12698364 3.73303223 C-1 1 -1 1 0 0 Z " fill="#F8FDFC" transform="translate(490,698)"/>
<path d="M0 0 C2.90297465 0.91236346 3.84887846 1.79850461 5.6875 4.25 C9.55000376 12.34286502 9.1048349 25.05033188 7.25 33.75 C5.2248062 39.01550388 5.2248062 39.01550388 2 41 C-2.46585841 41.80285095 -5.88255229 41.5706116 -9.9375 39.5 C-14.29587049 34.21712667 -14.36401156 27.09571953 -14.3125 20.5 C-14.30758545 19.75532471 -14.3026709 19.01064941 -14.29760742 18.2434082 C-14.15397574 11.53396714 -13.43488144 6.63230426 -8.6875 1.5 C-5.45788184 -0.30257758 -3.64840043 -0.46575325 0 0 Z " fill="#030303" transform="translate(313,814)"/>
<path d="M0 0 C0.66 0.33 1.32 0.66 2 1 C1.56429687 1.38929688 1.12859375 1.77859375 0.6796875 2.1796875 C-8.48856633 10.79228959 -14.56310725 21.85573315 -15.16796875 34.515625 C-15.36899204 46.80800713 -15.36899204 46.80800713 -11.7890625 58.41235352 C-6.18198924 69.94149277 -7.45422044 82.30255364 -7.6875 94.8125 C-7.71262146 97.16208557 -7.7354278 99.51169709 -7.75585938 101.86132812 C-7.81053059 107.57479199 -7.89384948 113.28727273 -8 119 C-15.04778237 110.40048846 -21.30140333 100.12239735 -20.48046875 88.67578125 C-19.87736831 85.31705116 -18.87252847 82.24994485 -17.68359375 79.05859375 C-15.6984991 73.08062299 -17.10735998 68.50874456 -19 62.75 C-23.82982077 46.69084596 -21.75034281 30.50196922 -13.875 15.8125 C-10.11476942 9.66014017 -5.31125341 4.83035521 0 0 Z " fill="#F8F8F8" transform="translate(606,500)"/>
<path d="M0 0 C5.75 4.625 5.75 4.625 8 8 C8.125 10.6875 8.125 10.6875 8 13 C7.01 13.33 6.02 13.66 5 14 C5.02094727 14.95777344 5.04189453 15.91554688 5.06347656 16.90234375 C5.13639479 20.48796376 5.18198558 24.07351953 5.21972656 27.65966797 C5.23972503 29.20567887 5.26693331 30.75161527 5.30175781 32.29736328 C5.6535504 48.3246198 5.6535504 48.3246198 1 55 C-3.68128571 59.84305468 -7.65654852 61.16663716 -14.3125 61.3125 C-19.93809656 61.28114216 -22.90682938 60.86577225 -27 57 C-27.33 56.34 -27.66 55.68 -28 55 C-27.34 55.165 -26.68 55.33 -26 55.5 C-18.54512076 56.74247987 -14.07579227 55.98329666 -7.296875 52.77734375 C-3.55677166 49.88321617 -1.38533918 46.31444837 -0.61260986 41.67323303 C-0.44399785 39.00645907 -0.39416916 36.36348798 -0.390625 33.69140625 C-0.37408875 32.72468491 -0.35755249 31.75796356 -0.34051514 30.76194763 C-0.29220082 27.69539938 -0.27070079 24.62934647 -0.25 21.5625 C-0.2218265 19.47458468 -0.19189715 17.38669226 -0.16015625 15.29882812 C-0.08644611 10.19925955 -0.0367702 5.09996329 0 0 Z " fill="#1B627A" transform="translate(392,713)"/>
<path d="M0 0 C16.68856189 15.22736484 16.19267887 53.96935414 18 75 C16.68 74.67 15.36 74.34 14 74 C14.33 79.61 14.66 85.22 15 91 C12.38423263 88.38423263 12.67818922 87.09894663 12.5078125 83.4453125 C12.44489014 82.28725098 12.38196777 81.12918945 12.31713867 79.93603516 C12.25373291 78.67839355 12.19032715 77.42075195 12.125 76.125 C10.80497166 54.2296587 7.56198993 32.81176657 2.56933594 11.44775391 C1.68328474 7.6383417 0.84351434 3.81903051 0 0 Z " fill="#2897BF" transform="translate(504,536)"/>
<path d="M0 0 C0.33 0 0.66 0 1 0 C1 13.86 1 27.72 1 42 C-9.64705882 34.01470588 -9.64705882 34.01470588 -11 30.125 C-11.99843694 20.42589831 -4.07252257 8.55089791 0 0 Z " fill="#269AC3" transform="translate(223,716)"/>
<path d="M0 0 C0.33 0 0.66 0 1 0 C1.07610425 7.0291449 1.12862273 14.05818342 1.16479492 21.08764648 C1.17987543 23.4786374 1.20034277 25.86960068 1.22631836 28.26049805 C1.26273306 31.69847435 1.27973399 35.13608469 1.29296875 38.57421875 C1.30845261 39.64210129 1.32393646 40.70998383 1.33988953 41.81022644 C1.34200168 51.13773545 1.34200168 51.13773545 -2 55 C-3.9375 56.0625 -3.9375 56.0625 -6 56 C-8.11328125 54.69921875 -8.11328125 54.69921875 -10 52 C-10.50594324 48.24129049 -10.37484739 44.5338362 -10.25 40.75 C-10.23195313 39.71875 -10.21390625 38.6875 -10.1953125 37.625 C-10.14823723 35.0829355 -10.07649546 32.54134933 -10 30 C-6.7 30 -3.4 30 0 30 C0 20.1 0 10.2 0 0 Z " fill="#269AC5" transform="translate(378,702)"/>
<path d="M0 0 C4.92825387 4.76927794 4.92825387 4.76927794 5.203125 9.484375 C5.22442539 10.9061763 5.23980699 12.32807568 5.25 13.75 C5.270625 14.45382812 5.29125 15.15765625 5.3125 15.8828125 C5.35318867 21.35543864 4.31177401 25.46547693 0.5 29.64453125 C-3.71444932 32.92609465 -6.61696293 34.09284085 -11.88671875 34.31640625 C-12.82451172 34.35830078 -13.76230469 34.40019531 -14.72851562 34.44335938 C-15.70498047 34.48267578 -16.68144531 34.52199219 -17.6875 34.5625 C-18.67556641 34.60568359 -19.66363281 34.64886719 -20.68164062 34.69335938 C-23.12095546 34.79941654 -25.56037113 34.90147714 -28 35 C-27.67 33.35 -27.34 31.7 -27 30 C-25.71416016 29.94392578 -25.71416016 29.94392578 -24.40234375 29.88671875 C-16.27869693 29.41963195 -10.60698325 28.96574178 -4.1875 23.6875 C-0.05110215 18.60563979 0.28515068 13.48175017 0.125 7.125 C0.11597656 6.43664062 0.10695313 5.74828125 0.09765625 5.0390625 C0.07432513 3.35922162 0.03846326 1.67956254 0 0 Z " fill="#13617C" transform="translate(260,739)"/>
<path d="M0 0 C1.32 0 2.64 0 4 0 C4 17.49 4 34.98 4 53 C2.68 53 1.36 53 0 53 C0 35.51 0 18.02 0 0 Z " fill="#165E7C" transform="translate(503,703)"/>
<path d="M0 0 C1.32 0 2.64 0 4 0 C4 17.49 4 34.98 4 53 C2.68 53 1.36 53 0 53 C0 35.51 0 18.02 0 0 Z " fill="#145F79" transform="translate(642,703)"/>
<path d="M0 0 C0.33 0 0.66 0 1 0 C1.11690073 4.49977884 1.18748837 8.99916287 1.25 13.5 C1.30027344 15.40265625 1.30027344 15.40265625 1.3515625 17.34375 C1.43409745 25.26710497 1.27891699 31.54505384 -4.48364258 37.54467773 C-9.95111925 42.36792722 -14.81761317 42.33198097 -21.81640625 42.29296875 C-26.10703813 41.89812533 -27.90383474 40.92415608 -31 38 C-31.33 37.34 -31.66 36.68 -32 36 C-31.34 36.165 -30.68 36.33 -30 36.5 C-21.62896576 37.89517237 -16.13191597 36.70600403 -9 32 C-8.34 31.01 -7.68 30.02 -7 29 C-6.01 29 -5.02 29 -4 29 C-3.87625 28.360625 -3.7525 27.72125 -3.625 27.0625 C-3.315625 26.0415625 -3.315625 26.0415625 -3 25 C-2.34 24.67 -1.68 24.34 -1 24 C-0.67 16.08 -0.34 8.16 0 0 Z " fill="#136583" transform="translate(396,732)"/>
<path d="M0 0 C3.465 1.98 3.465 1.98 7 4 C7 4.33 7 4.66 7 5 C5.35 5 3.7 5 2 5 C1.67 34.7 1.34 64.4 1 95 C27.07 95 53.14 95 80 95 C80 95.33 80 95.66 80 96 C53.6 96 27.2 96 0 96 C0 64.32 0 32.64 0 0 Z " fill="#3F9BBB" transform="translate(336,687)"/>
<path d="M0 0 C7 0 7 0 9.4375 1.3125 C11.92212779 5.5860598 11.63408024 10.17066794 11 15 C10.01 16.485 10.01 16.485 9 18 C6.03 18 3.06 18 0 18 C0 12.06 0 6.12 0 0 Z " fill="#20667D" transform="translate(236,738)"/>
<path d="M0 0 C2.475 0.495 2.475 0.495 5 1 C5 4.63 5 8.26 5 12 C-5.56 12 -16.12 12 -27 12 C-27 10.68 -27 9.36 -27 8 C-18.42 7.67 -9.84 7.34 -1 7 C-0.67 4.69 -0.34 2.38 0 0 Z " fill="#1E5C72" transform="translate(521,761)"/>
<path d="M0 0 C3.71151628 7.42303256 4.47257709 15.7820151 5 24 C5.09861328 25.38832031 5.09861328 25.38832031 5.19921875 26.8046875 C5.51816354 35.09725203 3.58447236 42.20043163 1 50 C0.67 50 0.34 50 0 50 C0 33.5 0 17 0 0 Z " fill="#2895BC" transform="translate(206,636)"/>
<path d="M0 0 C8 0 8 0 10 1.5 C11.77016391 5.92540977 11.77016391 10.07459023 10 14.5 C8 16 8 16 0 16 C0 10.72 0 5.44 0 0 Z " fill="#145F7B" transform="translate(236,711)"/>
<path d="M0 0 C1.32 0 2.64 0 4 0 C4 3.96 4 7.92 4 12 C-6.56 12 -17.12 12 -28 12 C-28 10.68 -28 9.36 -28 8 C-19.09 7.67 -10.18 7.34 -1 7 C-0.67 4.69 -0.34 2.38 0 0 Z " fill="#1E5B70" transform="translate(661,761)"/>
<path d="M0 0 C3.4337896 3.21225479 4.84783617 5.13162771 5.23828125 9.92578125 C5.46347013 20.20150559 5.46347013 20.20150559 3.25 23.8125 C1 26 1 26 -3 26 C-4.75 24.5 -4.75 24.5 -6 23 C-4.78763672 21.78957031 -4.78763672 21.78957031 -3.55078125 20.5546875 C-0.29274654 16.64504585 -0.22515748 13.0623136 -0.1875 8.125 C-0.16236328 7.34125 -0.13722656 6.5575 -0.11132812 5.75 C-0.05290936 3.83386445 -0.02348074 1.91688207 0 0 Z " fill="#1A6172" transform="translate(259,709)"/>
<path d="M0 0 C0.33 0 0.66 0 1 0 C1 13.2 1 26.4 1 40 C0.67 40 0.34 40 0 40 C-0.33 34.06 -0.66 28.12 -1 22 C-2.32 22 -3.64 22 -5 22 C-5 21.34 -5 20.68 -5 20 C-5.66 19.67 -6.32 19.34 -7 19 C-5.17778624 12.38757278 -2.94776396 6.19479329 0 0 Z " fill="#31A3CC" transform="translate(223,716)"/>
<path d="M0 0 C1.29767158 2.59211333 2.58912606 5.18717283 3.875 7.78515625 C4.58327913 9.21096443 5.29161403 10.6367449 6 12.0625 C6.35578125 12.78244141 6.7115625 13.50238281 7.078125 14.24414062 C7.42359375 14.93830078 7.7690625 15.63246094 8.125 16.34765625 C8.43695313 16.97679932 8.74890625 17.60594238 9.0703125 18.25415039 C10.0995874 20.25611557 10.0995874 20.25611557 12 23 C11.9765625 25.48046875 11.9765625 25.48046875 11.625 28.1875 C11.45871094 29.53908203 11.45871094 29.53908203 11.2890625 30.91796875 C11.19367188 31.60503906 11.09828125 32.29210937 11 33 C3.77332302 26.57161873 1.44701562 15.16443228 0 6 C-0.04381878 4.00048008 -0.0567783 1.99919389 0 0 Z " fill="#2B99C0" transform="translate(405,573)"/>
<path d="M0 0 C3.3 0 6.6 0 10 0 C10 0.33 10 0.66 10 1 C8.02 1 6.04 1 4 1 C4 8.92 4 16.84 4 25 C3.01 24.67 2.02 24.34 1 24 C-0.25248502 21.49502996 -0.11374406 19.79146726 -0.09765625 16.9921875 C-0.09443359 16.00605469 -0.09121094 15.01992188 -0.08789062 14.00390625 C-0.07951172 12.97136719 -0.07113281 11.93882812 -0.0625 10.875 C-0.05798828 9.83472656 -0.05347656 8.79445313 -0.04882812 7.72265625 C-0.03701967 5.14841313 -0.01908385 2.57419947 0 0 Z " fill="#145B74" transform="translate(368,732)"/>
<path d="M0 0 C0.33 0 0.66 0 1 0 C1.07610425 7.0291449 1.12862273 14.05818342 1.16479492 21.08764648 C1.17987543 23.4786374 1.20034277 25.86960068 1.22631836 28.26049805 C1.26273306 31.69847435 1.27973399 35.13608469 1.29296875 38.57421875 C1.30845261 39.64210129 1.32393646 40.70998383 1.33988953 41.81022644 C1.34201743 51.20727152 1.34201743 51.20727152 -2 55 C-4.1875 55.8125 -4.1875 55.8125 -6 56 C-6 54.35 -6 52.7 -6 51 C-4.35 51.33 -2.7 51.66 -1 52 C-1.01160156 50.9275 -1.02320313 49.855 -1.03515625 48.75 C-1.14863641 32.48687485 -0.5693425 16.25048852 0 0 Z " fill="#6395A3" transform="translate(378,702)"/>
<path d="M0 0 C7.72682927 6.43902439 7.72682927 6.43902439 8.4375 10.5 C8 13 8 13 5.6875 14.8125 C3 16 3 16 0 16 C0 10.72 0 5.44 0 0 Z " fill="#06090D" transform="translate(392,713)"/>
<path d="M0 0 C0 0.66 0 1.32 0 2 C-1.32 2 -2.64 2 -4 2 C-3.67 3.32 -3.34 4.64 -3 6 C-15.89488342 6.68874748 -15.89488342 6.68874748 -19.75 4.125 C-22 2 -22 2 -23 0 C-22.34 0.165 -21.68 0.33 -21 0.5 C-13.62486625 1.72918896 -6.67464977 -1.90704279 0 0 Z " fill="#1C6176" transform="translate(387,768)"/>
<path d="M0 0 C0.33 0 0.66 0 1 0 C1.20086443 3.71599191 1.1519437 4.77208445 -1 8 C-1.66 8 -2.32 8 -3 8 C-3 9.32 -3 10.64 -3 12 C-5.31 12 -7.62 12 -10 12 C-10 12.66 -10 13.32 -10 14 C-12.97 14 -15.94 14 -19 14 C-19 13.34 -19 12.68 -19 12 C-20.98 12 -22.96 12 -25 12 C-25.33 12.66 -25.66 13.32 -26 14 C-26 13.01 -26 12.02 -26 11 C-25.14277344 10.96261719 -24.28554687 10.92523437 -23.40234375 10.88671875 C-15.206767 10.41549619 -9.41993104 10.04819941 -3.125 4.4375 C-0.99612842 2.20114199 -0.99612842 2.20114199 0 0 Z " fill="#215F72" transform="translate(259,758)"/>
<path d="M0 0 C0.33 0.66 0.66 1.32 1 2 C0.0625 4.125 0.0625 4.125 -1 6 C-1.66 6 -2.32 6 -3 6 C-3 6.66 -3 7.32 -3 8 C-2.34 8 -1.68 8 -1 8 C-1 9.32 -1 10.64 -1 12 C-1.66 12 -2.32 12 -3 12 C-3 12.66 -3 13.32 -3 14 C-5.97 13.505 -5.97 13.505 -9 13 C-9.8353125 14.4540625 -9.8353125 14.4540625 -10.6875 15.9375 C-13 19 -13 19 -15.75 19.875 C-16.4925 19.91625 -17.235 19.9575 -18 20 C-13.67216163 14.76103777 -9.03549004 9.98008422 -4.171875 5.234375 C-1.8692256 3.00120967 -1.8692256 3.00120967 0 0 Z " fill="#279DC8" transform="translate(273,666)"/>
<path d="M0 0 C1.98 0 3.96 0 6 0 C6.05416188 1.60379341 6.09286638 3.20811406 6.125 4.8125 C6.14820313 5.70582031 6.17140625 6.59914063 6.1953125 7.51953125 C6 10 6 10 4 13 C2.68 13 1.36 13 0 13 C0 8.71 0 4.42 0 0 Z " fill="#309CC2" transform="translate(241,743)"/>
<path d="M0 0 C1.32 0 2.64 0 4 0 C4 3.96 4 7.92 4 12 C-6.56 12 -17.12 12 -28 12 C-28 11.01 -28 10.02 -28 9 C-27.34 9 -26.68 9 -26 9 C-26 9.66 -26 10.32 -26 11 C-16.76 11 -7.52 11 2 11 C1.34 9.68 0.68 8.36 0 7 C-0.0777346 4.66796188 -0.08967728 2.33160941 0 0 Z " fill="#096685" transform="translate(661,761)"/>
<path d="M0 0 C0.33 0.66 0.66 1.32 1 2 C3.02463255 2.65213292 3.02463255 2.65213292 5 3 C4.34 4.32 3.68 5.64 3 7 C0.03 6.505 0.03 6.505 -3 6 C-3 6.66 -3 7.32 -3 8 C-2.34 8.33 -1.68 8.66 -1 9 C-8.59 9 -16.18 9 -24 9 C-24 8.67 -24 8.34 -24 8 C-23.02160156 8.00902344 -22.04320312 8.01804687 -21.03515625 8.02734375 C-12.10303128 7.82533896 -6.42201924 6.66567309 0 0 Z " fill="#4C9BBA" transform="translate(249,690)"/>
<path d="M0 0 C0.33 0.66 0.66 1.32 1 2 C1.66 2 2.32 2 3 2 C3.33 5.63 3.66 9.26 4 13 C2.68 12.67 1.36 12.34 0 12 C0.33 17.61 0.66 23.22 1 29 C-1.63991268 26.36008732 -1.30240797 25.02053704 -1.4140625 21.3359375 C-1.45273437 20.21445312 -1.49140625 19.09296875 -1.53125 17.9375 C-1.5621875 16.761875 -1.593125 15.58625 -1.625 14.375 C-1.66367187 13.19164062 -1.70234375 12.00828125 -1.7421875 10.7890625 C-1.83668845 7.85953309 -1.92224558 4.93001403 -2 2 C-1.34 2 -0.68 2 0 2 C0 1.34 0 0.68 0 0 Z " fill="#2D93B3" transform="translate(518,598)"/>
<path d="M0 0 C1.45599609 0.24556641 1.45599609 0.24556641 2.94140625 0.49609375 C7.28276888 1.11628841 11.55997771 1.11126417 15.9375 1.0625 C16.71673828 1.05798828 17.49597656 1.05347656 18.29882812 1.04882812 C20.19925268 1.03716908 22.09963706 1.01923877 24 1 C23.01 1.495 23.01 1.495 22 2 C22 2.66 22 3.32 22 4 C18.38026598 5.31626692 15.90432869 6 12 6 C12 5.34 12 4.68 12 4 C7.71 4 3.42 4 -1 4 C-0.67 2.68 -0.34 1.36 0 0 Z " fill="#2B9BBF" transform="translate(628,616)"/>
<path d="M0 0 C1.98 0 3.96 0 6 0 C6.36521739 7.30434783 6.36521739 7.30434783 4.6875 10.5 C3 12 3 12 0 12 C0 8.04 0 4.08 0 0 Z " fill="#2999C0" transform="translate(241,715)"/>
<path d="M0 0 C4.93573265 4.93573265 4.93573265 4.93573265 5.09765625 10.13671875 C5.08605469 11.30847656 5.07445312 12.48023438 5.0625 13.6875 C5.05347656 14.86699219 5.04445313 16.04648437 5.03515625 17.26171875 C5.02355469 18.16535156 5.01195312 19.06898438 5 20 C3.5393715 17.35261084 3 16.10551666 3 13 C2.01 13.33 1.02 13.66 0 14 C0 9.38 0 4.76 0 0 Z " fill="#166081" transform="translate(259,709)"/>
<path d="M0 0 C0.2210949 2.95789127 0.42740245 5.91552764 0.625 8.875 C0.68945312 9.71675781 0.75390625 10.55851563 0.8203125 11.42578125 C0.871875 12.23144531 0.9234375 13.03710938 0.9765625 13.8671875 C1.02893066 14.61081543 1.08129883 15.35444336 1.13525391 16.12060547 C1 18 1 18 -1 20 C-1 16.37 -1 12.74 -1 9 C-2.32 9 -3.64 9 -5 9 C-5 11.31 -5 13.62 -5 16 C-5.33 16 -5.66 16 -6 16 C-6.10841951 14.08458862 -6.18578079 12.16740227 -6.25 10.25 C-6.29640625 9.18265625 -6.3428125 8.1153125 -6.390625 7.015625 C-6 4 -6 4 -4.109375 1.609375 C-2 0 -2 0 0 0 Z " fill="#32A0C0" transform="translate(666,752)"/>
<path d="M0 0 C1.32 0.33 2.64 0.66 4 1 C4 4.63 4 8.26 4 12 C-6.56 12 -17.12 12 -28 12 C-28 11.67 -28 11.34 -28 11 C-18.43 10.67 -8.86 10.34 1 10 C1.66 8.35 2.32 6.7 3 5 C2.01 5 1.02 5 0 5 C0 3.35 0 1.7 0 0 Z " fill="#096485" transform="translate(522,761)"/>
<path d="M0 0 C0.33 0 0.66 0 1 0 C1.04898438 1.08539062 1.09796875 2.17078125 1.1484375 3.2890625 C1.22351986 4.73439784 1.29906528 6.17970919 1.375 7.625 C1.4059375 8.33785156 1.436875 9.05070313 1.46875 9.78515625 C1.71020155 14.17152608 2.39342731 17.8594834 4 22 C2.02 22 0.04 22 -2 22 C-2 21.34 -2 20.68 -2 20 C-1.34 20 -0.68 20 0 20 C0 18.68 0 17.36 0 16 C-0.66 16 -1.32 16 -2 16 C-2 14.68 -2 13.36 -2 12 C-2.66 12 -3.32 12 -4 12 C-4 12.66 -4 13.32 -4 14 C-4.66 14 -5.32 14 -6 14 C-6 12.68 -6 11.36 -6 10 C-4.02 10 -2.04 10 0 10 C0 6.7 0 3.4 0 0 Z " fill="#2F98BE" transform="translate(536,696)"/>
<path d="M0 0 C2.475 0.495 2.475 0.495 5 1 C5 5.29 5 9.58 5 14 C0 10 0 10 -0.48828125 7.421875 C-0.43027344 6.54015625 -0.37226563 5.6584375 -0.3125 4.75 C-0.26738281 3.85796875 -0.22226562 2.9659375 -0.17578125 2.046875 C-0.11777344 1.37140625 -0.05976563 0.6959375 0 0 Z " fill="#17647E" transform="translate(392,703)"/>
<path d="M0 0 C0 0.99 0 1.98 0 3 C-2 5 -2 5 -5 6 C-5.66 6.66 -6.32 7.32 -7 8 C-10.2578125 8.1953125 -10.2578125 8.1953125 -14.125 8.125 C-16.04699219 8.09792969 -16.04699219 8.09792969 -18.0078125 8.0703125 C-19.48894531 8.03550781 -19.48894531 8.03550781 -21 8 C-18.37949169 5.37949169 -16.36329695 5.29258397 -12.75 4.5625 C-8.03885029 3.53992487 -4.12584444 2.47550666 0 0 Z " fill="#2C95BA" transform="translate(232,774)"/>
<path d="M0 0 C4.57269026 2.28634513 5.9952155 3.99362066 9 8 C9 8.66 9 9.32 9 10 C7.68 10 6.36 10 5 10 C5 8.68 5 7.36 5 6 C4.67 6.99 4.34 7.98 4 9 C2.35 9 0.7 9 -1 9 C-0.67 6.03 -0.34 3.06 0 0 Z " fill="#2599C2" transform="translate(343,692)"/>
<path d="M0 0 C0.66 0.33 1.32 0.66 2 1 C1.56429687 1.38929688 1.12859375 1.77859375 0.6796875 2.1796875 C-3.73108933 6.32314452 -6.78817759 10.58542456 -9.73828125 15.86328125 C-11 18 -11 18 -13 20 C-13.66 20 -14.32 20 -15 20 C-12.45608447 11.85947031 -6.04473855 5.7228294 0 0 Z " fill="#9ABCC9" transform="translate(606,500)"/>
<path d="M0 0 C0.66 0 1.32 0 2 0 C2.33 4.62 2.66 9.24 3 14 C0.69 12.35 -1.62 10.7 -4 9 C-3.67 8.01 -3.34 7.02 -3 6 C-2.34 6 -1.68 6 -1 6 C-1.020625 5.195625 -1.04125 4.39125 -1.0625 3.5625 C-1 1 -1 1 0 0 Z " fill="#2B98BF" transform="translate(221,744)"/>
<path d="M0 0 C0.66 0 1.32 0 2 0 C1.125 4.75 1.125 4.75 0 7 C-0.58265625 7.11214844 -1.1653125 7.22429688 -1.765625 7.33984375 C-4.94931454 8.2804793 -6.4729368 10.18497812 -8.75 12.5625 C-9.54921875 13.38878906 -10.3484375 14.21507812 -11.171875 15.06640625 C-12.07679688 16.02353516 -12.07679688 16.02353516 -13 17 C-13.66 16.34 -14.32 15.68 -15 15 C-14.25556641 14.38125 -14.25556641 14.38125 -13.49609375 13.75 C-9.03924962 9.96125964 -5.14457263 6.03765064 -1.4453125 1.50390625 C-0.96835937 1.00761719 -0.49140625 0.51132812 0 0 Z " fill="#2D2D2D" transform="translate(780,507)"/>
<path d="M0 0 C2.64 0 5.28 0 8 0 C8.66 1.32 9.32 2.64 10 4 C7.03 3.67 4.06 3.34 1 3 C1 7.29 1 11.58 1 16 C0.67 16 0.34 16 0 16 C0 10.72 0 5.44 0 0 Z " fill="#326B79" transform="translate(236,711)"/>
<path d="M0 0 C0.99 1.485 0.99 1.485 2 3 C2.48597656 3.72316406 2.97195313 4.44632813 3.47265625 5.19140625 C3.99730469 5.97386719 4.52195312 6.75632812 5.0625 7.5625 C5.58972656 8.34753906 6.11695313 9.13257813 6.66015625 9.94140625 C8 12 8 12 9 14 C6.69 14 4.38 14 2 14 C2.04125 13.0925 2.0825 12.185 2.125 11.25 C2.00096751 8.02515524 1.46866102 6.75373941 0 4 C0 2.68 0 1.36 0 0 Z " fill="#030C15" transform="translate(532,656)"/>
<path d="M0 0 C-0.66 0 -1.32 0 -2 0 C-2.33 1.98 -2.66 3.96 -3 6 C-3.99 6 -4.98 6 -6 6 C-6.33 6.66 -6.66 7.32 -7 8 C-7 7.34 -7 6.68 -7 6 C-7.66 6 -8.32 6 -9 6 C-8.8125 4.1875 -8.8125 4.1875 -8 2 C-3.744 -1.248 -3.744 -1.248 0 0 Z " fill="#3C9CBD" transform="translate(681,558)"/>
<path d="M0 0 C1.07310858 3.27185553 0.89263102 5.42947592 0.0625 8.75 C-0.13214844 9.54921875 -0.32679688 10.3484375 -0.52734375 11.171875 C-0.76130859 12.07679688 -0.76130859 12.07679688 -1 13 C-2.32 13 -3.64 13 -5 13 C-4.54803755 11.39402675 -4.08817673 9.79027492 -3.625 8.1875 C-3.36976563 7.29417969 -3.11453125 6.40085937 -2.8515625 5.48046875 C-2 3 -2 3 0 0 Z " fill="#2C95B7" transform="translate(357,633)"/>
<path d="M0 0 C0.33 0.66 0.66 1.32 1 2 C0.34 2 -0.32 2 -1 2 C-1.33 2.99 -1.66 3.98 -2 5 C-9.59 5 -17.18 5 -25 5 C-25 4.67 -25 4.34 -25 4 C-23.69804687 3.96261719 -22.39609375 3.92523437 -21.0546875 3.88671875 C-19.32809743 3.82103326 -17.60153619 3.75458682 -15.875 3.6875 C-15.0190625 3.66494141 -14.163125 3.64238281 -13.28125 3.61914062 C-8.13769325 3.40152861 -4.50223908 2.75300848 0 0 Z " fill="#2C90B0" transform="translate(259,769)"/>
<path d="M0 0 C0.33 1.32 0.66 2.64 1 4 C0.34 4 -0.32 4 -1 4 C-1 5.32 -1 6.64 -1 8 C-2.32 8 -3.64 8 -5 8 C-5 7.34 -5 6.68 -5 6 C-6.98 6 -8.96 6 -11 6 C-8.60805471 4.80402736 -6.21385019 3.61463244 -3.8125 2.4375 C-1.16236354 1.2649703 -1.16236354 1.2649703 0 0 Z " fill="#2C98BA" transform="translate(641,682)"/>
<path d="M0 0 C4.875 2.625 4.875 2.625 6 6 C5.34 6 4.68 6 4 6 C3.67 6.99 3.34 7.98 3 9 C2.01 8.34 1.02 7.68 0 7 C-0.1875 3.375 -0.1875 3.375 0 0 Z " fill="#2E98C0" transform="translate(598,664)"/>
<path d="M0 0 C6.0546875 -0.1953125 6.0546875 -0.1953125 8 0 C10 2 10 2 10 6 C8.68 6 7.36 6 6 6 C6 4.68 6 3.36 6 2 C4.02 2 2.04 2 0 2 C0 1.34 0 0.68 0 0 Z " fill="#EAF2F0" transform="translate(236,756)"/>
<path d="M0 0 C0.66 0 1.32 0 2 0 C1.45276317 3.37462715 0.9451 5.08235 -1 8 C-1 7.34 -1 6.68 -1 6 C-2.98 7.32 -4.96 8.64 -7 10 C-5.32598022 6.04322598 -2.86850715 3.15535787 0 0 Z " fill="#3F3F3F" transform="translate(771,484)"/>
<path d="M0 0 C1.15866723 4.63466892 0.70010994 7.33260039 0 12 C-1.65 12 -3.3 12 -5 12 C-3.35 8.04 -1.7 4.08 0 0 Z " fill="#3095B5" transform="translate(223,716)"/>
<path d="M0 0 C1.32 0 2.64 0 4 0 C4 2.64 4 5.28 4 8 C2.68 8 1.36 8 0 8 C0 5.36 0 2.72 0 0 Z " fill="#259AC6" transform="translate(516,592)"/>
<path d="M0 0 C0 4.1041911 -1.45843064 5.84021107 -4 9 C-6.75 9.875 -6.75 9.875 -9 10 C-8.06409496 8.8944811 -7.12620142 7.79064547 -6.1875 6.6875 C-5.66542969 6.07261719 -5.14335937 5.45773437 -4.60546875 4.82421875 C-3.12827531 3.14575321 -1.59960869 1.56117966 0 0 Z " fill="#2A8EB4" transform="translate(264,676)"/>
<path d="M0 0 C0.33 0 0.66 0 1 0 C1.08226668 3.04386724 0.97608217 5.07175348 0 8 C-0.99 8 -1.98 8 -3 8 C-3.33 9.98 -3.66 11.96 -4 14 C-5.17578125 12.328125 -5.17578125 12.328125 -6 10 C-4.91796875 7.421875 -4.91796875 7.421875 -3.1875 4.75 C-2.62417969 3.85796875 -2.06085937 2.9659375 -1.48046875 2.046875 C-0.99191406 1.37140625 -0.50335937 0.6959375 0 0 Z " fill="#3096B7" transform="translate(659,606)"/>
<path d="M0 0 C-0.33 1.32 -0.66 2.64 -1 4 C-3.31 4 -5.62 4 -8 4 C-8.33 3.01 -8.66 2.02 -9 1 C-5.92677456 0.08941469 -3.19902639 -0.08886184 0 0 Z " fill="#1A363E" transform="translate(344,612)"/>
<path d="M0 0 C0.710001 1.31077107 1.36039986 2.6534734 2 4 C2.2990625 4.6290625 2.598125 5.258125 2.90625 5.90625 C3.2053125 6.5971875 3.504375 7.288125 3.8125 8 C4.10769531 8.66 4.40289062 9.32 4.70703125 10 C5 12 5 12 3.57421875 14.25 C3.05472656 14.8275 2.53523438 15.405 2 16 C0.80911014 10.61972975 -0.2919519 5.54708616 0 0 Z " fill="#358DAE" transform="translate(405,573)"/>
<path d="M0 0 C0.75 1.75 0.75 1.75 1 4 C-0.9375 6.25 -0.9375 6.25 -3 8 C-4.125 3.25 -4.125 3.25 -3 1 C-2.01 0.67 -1.02 0.34 0 0 Z " fill="#145E7E" transform="translate(262,727)"/>
<path d="M0 0 C0.99 0.66 1.98 1.32 3 2 C2.67 4.31 2.34 6.62 2 9 C0.35 7.35 -1.3 5.7 -3 4 C-2.01 2.68 -1.02 1.36 0 0 Z " fill="#2697BD" transform="translate(614,643)"/>
<path d="M0 0 C0.33 0 0.66 0 1 0 C1 3.3 1 6.6 1 10 C0.01 10 -0.98 10 -2 10 C-2.33 11.32 -2.66 12.64 -3 14 C-3 11.36 -3 8.72 -3 6 C-2.01 6 -1.02 6 0 6 C0 4.02 0 2.04 0 0 Z " fill="#3488A8" transform="translate(518,582)"/>
<path d="M0 0 C2.90092502 2.90092502 3.55461795 3.96517325 4.6875 7.6875 C4.93886719 8.49574219 5.19023437 9.30398438 5.44921875 10.13671875 C5.63097656 10.75160156 5.81273437 11.36648438 6 12 C5.01 12.33 4.02 12.66 3 13 C2.01 8.71 1.02 4.42 0 0 Z " fill="#3686A3" transform="translate(504,536)"/>
<path d="M0 0 C0.33 0.66 0.66 1.32 1 2 C0.0625 4.125 0.0625 4.125 -1 6 C-1.66 6 -2.32 6 -3 6 C-3 7.32 -3 8.64 -3 10 C-4.65 10 -6.3 10 -8 10 C-7.59007812 9.52949219 -7.18015625 9.05898438 -6.7578125 8.57421875 C-6.21898437 7.95160156 -5.68015625 7.32898438 -5.125 6.6875 C-4.59132813 6.07261719 -4.05765625 5.45773437 -3.5078125 4.82421875 C-1.8359553 2.86501788 -1.8359553 2.86501788 0 0 Z " fill="#2F90AF" transform="translate(273,666)"/>
<path d="M0 0 C2.64 0 5.28 0 8 0 C7.67 1.98 7.34 3.96 7 6 C5.83054208 5.19152271 4.66449539 4.37810888 3.5 3.5625 C2.8503125 3.11003906 2.200625 2.65757812 1.53125 2.19140625 C1.0259375 1.79824219 0.520625 1.40507813 0 1 C0 0.67 0 0.34 0 0 Z " fill="#2C94B9" transform="translate(623,658)"/>
<path d="M0 0 C1.32 0.33 2.64 0.66 4 1 C4 4.63 4 8.26 4 12 C3.67 12 3.34 12 3 12 C3 9.69 3 7.38 3 5 C2.01 5 1.02 5 0 5 C0 3.35 0 1.7 0 0 Z " fill="#14688A" transform="translate(522,761)"/>
<path d="M0 0 C2.31 0 4.62 0 7 0 C4.42215154 2.64752004 2.08351902 4.94432065 -1 7 C-0.67 4.69 -0.34 2.38 0 0 Z " fill="#020B15" transform="translate(242,690)"/>
<path d="M0 0 C0.66 0.33 1.32 0.66 2 1 C2.625 3.5625 2.625 3.5625 3 6 C2.34 6 1.68 6 1 6 C0.67 6.66 0.34 7.32 0 8 C-0.66 7.67 -1.32 7.34 -2 7 C-2 5.02 -2 3.04 -2 1 C-1.34 0.67 -0.68 0.34 0 0 Z " fill="#2797BE" transform="translate(603,683)"/>
<path d="M0 0 C2.05137315 3.48216283 2.56818592 6.77275657 3.125 10.75 C3.29257812 11.92046875 3.46015625 13.0909375 3.6328125 14.296875 C3.75398438 15.18890625 3.87515625 16.0809375 4 17 C3.34 16.67 2.68 16.34 2 16 C1.5859375 13.93359375 1.5859375 13.93359375 1.375 11.4375 C1.30023438 10.61121094 1.22546875 9.78492188 1.1484375 8.93359375 C1.07496094 7.97646484 1.07496094 7.97646484 1 7 C0.34 7 -0.32 7 -1 7 C-0.67 4.69 -0.34 2.38 0 0 Z " fill="#031627" transform="translate(508,553)"/>
<path d="M0 0 C0.66 0 1.32 0 2 0 C2.33 3.3 2.66 6.6 3 10 C2.01 10.33 1.02 10.66 0 11 C0 7.37 0 3.74 0 0 Z " fill="#3D7283" transform="translate(259,712)"/>
<path d="M0 0 C0.99 0.99 1.98 1.98 3 3 C2.34 4.32 1.68 5.64 1 7 C0.34 7 -0.32 7 -1 7 C-1 8.65 -1 10.3 -1 12 C-1.33 12 -1.66 12 -2 12 C-2.17835515 7.45194365 -1.99785435 4.1205746 0 0 Z " fill="#3192AE" transform="translate(661,585)"/>
<path d="M0 0 C2.97 0.495 2.97 0.495 6 1 C6.33 2.65 6.66 4.3 7 6 C6.01 6.33 5.02 6.66 4 7 C3.67 5.35 3.34 3.7 3 2 C2.01 2 1.02 2 0 2 C0 1.34 0 0.68 0 0 Z " fill="#2F9ABB" transform="translate(627,768)"/>
<path d="M0 0 C0.99 0 1.98 0 3 0 C5.1875 3 5.1875 3 7 6 C6.34 6.66 5.68 7.32 5 8 C4.67 6.68 4.34 5.36 4 4 C2.68 4 1.36 4 0 4 C0 2.68 0 1.36 0 0 Z " fill="#35A1C8" transform="translate(354,760)"/>
<path d="M0 0 C3.63 0.66 7.26 1.32 11 2 C7 4 7 4 3.25 3.125 C2.1775 2.75375 1.105 2.3825 0 2 C0 1.34 0 0.68 0 0 Z " fill="#2995B6" transform="translate(609,609)"/>
<path d="M0 0 C0.66 0 1.32 0 2 0 C2 1.32 2 2.64 2 4 C1.01 4 0.02 4 -1 4 C-0.67 5.65 -0.34 7.3 0 9 C-1.5625 7.75 -1.5625 7.75 -3 6 C-2.6875 3.8125 -2.6875 3.8125 -2 2 C-1.34 2 -0.68 2 0 2 C0 1.34 0 0.68 0 0 Z " fill="#2C95C0" transform="translate(364,674)"/>
<path d="M0 0 C0.33 0 0.66 0 1 0 C1 1.65 1 3.3 1 5 C0.01 5 -0.98 5 -2 5 C-2 6.32 -2 7.64 -2 9 C-2.99 9 -3.98 9 -5 9 C-3.75471468 5.55151758 -2.38532951 2.80016942 0 0 Z " fill="#3495B2" transform="translate(284,651)"/>
<path d="M0 0 C-0.66 0 -1.32 0 -2 0 C-2 0.66 -2 1.32 -2 2 C-3.98 2.33 -5.96 2.66 -8 3 C-8 2.34 -8 1.68 -8 1 C-9.32 0.67 -10.64 0.34 -12 0 C-3.42857143 -1.28571429 -3.42857143 -1.28571429 0 0 Z " fill="#2790B9" transform="translate(652,618)"/>
<path d="M0 0 C0.33 0.66 0.66 1.32 1 2 C1.66 2.33 2.32 2.66 3 3 C2.01 6.3 1.02 9.6 0 13 C-0.33 13 -0.66 13 -1 13 C-1.02686553 11.02090602 -1.04633375 9.04171029 -1.0625 7.0625 C-1.07410156 5.96035156 -1.08570313 4.85820313 -1.09765625 3.72265625 C-1 1 -1 1 0 0 Z " fill="#020813" transform="translate(659,582)"/>
<path d="M0 0 C2 0 2 0 4.5 2.375 C5.325 3.24125 6.15 4.1075 7 5 C7.66 5.66 8.32 6.32 9 7 C7.02 7 5.04 7 3 7 C2.01 4.69 1.02 2.38 0 0 Z " fill="#3193B6" transform="translate(362,767)"/>
<path d="M0 0 C6.64615385 1.47692308 6.64615385 1.47692308 8.4375 4.125 C8.7159375 5.053125 8.7159375 5.053125 9 6 C4.64464931 4.83857315 2.35380297 3.92300495 0 0 Z " fill="#186680" transform="translate(364,768)"/>
<path d="M0 0 C0.33 0 0.66 0 1 0 C1.49230769 7.38461538 1.49230769 7.38461538 -1 10.5 C-1.66 10.995 -2.32 11.49 -3 12 C-3.33 11.01 -3.66 10.02 -4 9 C-3.01 9 -2.02 9 -1 9 C-0.67 6.03 -0.34 3.06 0 0 Z " fill="#53A4C3" transform="translate(246,715)"/>
<path d="M0 0 C1.98 0 3.96 0 6 0 C6.33 1.98 6.66 3.96 7 6 C5.83054208 5.19152271 4.66449539 4.37810888 3.5 3.5625 C2.8503125 3.11003906 2.200625 2.65757812 1.53125 2.19140625 C1.0259375 1.79824219 0.520625 1.40507813 0 1 C0 0.67 0 0.34 0 0 Z " fill="#2C95B7" transform="translate(616,652)"/>
<path d="M0 0 C2 3 2 3 1.7578125 5.48046875 C1.54898438 6.37378906 1.34015625 7.26710938 1.125 8.1875 C0.92132812 9.08855469 0.71765625 9.98960937 0.5078125 10.91796875 C0.25644531 11.94857422 0.25644531 11.94857422 0 13 C-0.33 13 -0.66 13 -1 13 C-1.33 10.36 -1.66 7.72 -2 5 C-1.34 5 -0.68 5 0 5 C0 3.35 0 1.7 0 0 Z " fill="#308CAB" transform="translate(512,555)"/>
<path d="M0 0 C4.875 4.625 4.875 4.625 6 8 C4.68 8 3.36 8 2 8 C1.855625 7.236875 1.71125 6.47375 1.5625 5.6875 C1.0367406 2.91827092 1.0367406 2.91827092 0 0 Z " fill="#2D8FAD" transform="translate(346,694)"/>
<path d="M0 0 C0 0.66 0 1.32 0 2 C-2.64 2.99 -5.28 3.98 -8 5 C-7.67 3.68 -7.34 2.36 -7 1 C-4 0 -4 0 0 0 Z " fill="#DCDCDC" transform="translate(336,614)"/>
<path d="M0 0 C0.33 0 0.66 0 1 0 C1 2.64 1 5.28 1 8 C-0.32 7.67 -1.64 7.34 -3 7 C-2.01 4.69 -1.02 2.38 0 0 Z " fill="#2A98B8" transform="translate(665,576)"/>
<path d="M0 0 C0.33 0.66 0.66 1.32 1 2 C2.32 2 3.64 2 5 2 C4.67 3.32 4.34 4.64 4 6 C2.68 5.67 1.36 5.34 0 5 C0 3.35 0 1.7 0 0 Z " fill="#3199BE" transform="translate(521,756)"/>
<path d="M0 0 C0.66 0 1.32 0 2 0 C2 0.66 2 1.32 2 2 C2.66 2.33 3.32 2.66 4 3 C2.515 5.475 2.515 5.475 1 8 C0.855625 7.401875 0.71125 6.80375 0.5625 6.1875 C0.1127561 4.43849596 -0.42892341 2.71322977 -1 1 C-0.67 0.67 -0.34 0.34 0 0 Z " fill="#E9FAF9" transform="translate(388,754)"/>
<path d="M0 0 C2.475 0.495 2.475 0.495 5 1 C4.67 1.99 4.34 2.98 4 4 C1.9375 4.6875 1.9375 4.6875 0 5 C0 3.35 0 1.7 0 0 Z " fill="#359DBE" transform="translate(372,753)"/>
<path d="M0 0 C1.98 0.66 3.96 1.32 6 2 C6.33 3.65 6.66 5.3 7 7 C5 7 5 7 3.5 5.75 C1.93988187 3.92986218 0.9773403 2.18022066 0 0 Z " fill="#2B96B5" transform="translate(257,706)"/>
<path d="M0 0 C0.66 0.33 1.32 0.66 2 1 C2 1.66 2 2.32 2 3 C1.34 3 0.68 3 0 3 C0 4.98 0 6.96 0 9 C-0.66 9 -1.32 9 -2 9 C-2.125 5.625 -2.125 5.625 -2 2 C-1.34 1.34 -0.68 0.68 0 0 Z " fill="#03060C" transform="translate(370,693)"/>
<path d="M0 0 C1.32 1.32 2.64 2.64 4 4 C2.68 4 1.36 4 0 4 C0 4.66 0 5.32 0 6 C-0.66 6 -1.32 6 -2 6 C-2 4.68 -2 3.36 -2 2 C-1.34 2 -0.68 2 0 2 C0 1.34 0 0.68 0 0 Z " fill="#2A8BAE" transform="translate(518,672)"/>
<path d="M0 0 C0.66 0 1.32 0 2 0 C2.33 2.64 2.66 5.28 3 8 C2.01 7.34 1.02 6.68 0 6 C-0.1875 2.875 -0.1875 2.875 0 0 Z " fill="#195D7B" transform="translate(661,762)"/>
<path d="M0 0 C0 1.98 0 3.96 0 6 C-0.99 6.33 -1.98 6.66 -3 7 C-3.33 5.02 -3.66 3.04 -4 1 C-2 0 -2 0 0 0 Z " fill="#165D74" transform="translate(394,760)"/>
<path d="M0 0 C1.65 1.65 3.3 3.3 5 5 C4.01 5.33 3.02 5.66 2 6 C1.01 5.34 0.02 4.68 -1 4 C-0.67 2.68 -0.34 1.36 0 0 Z " fill="#020B10" transform="translate(523,634)"/>
<path d="M0 0 C1.98 0 3.96 0 6 0 C4.1875 2 4.1875 2 2 4 C1.01 4 0.02 4 -1 4 C-0.67 2.68 -0.34 1.36 0 0 Z " fill="#17242B" transform="translate(608,496)"/>
</svg>
